<svg id="visual" viewBox="0 0 900 450" width="900" height="450" xmlns="http://www.w3.org/2000/svg" xmlns:xlink="http://www.w3.org/1999/xlink" version="1.1"><rect x="0" y="0" width="900" height="450" fill="#5865F2"></rect><defs><linearGradient id="grad1_0" x1="50%" y1="100%" x2="100%" y2="0%"><stop offset="10%" stop-color="#2e3035" stop-opacity="1"></stop><stop offset="90%" stop-color="#2e3035" stop-opacity="1"></stop></linearGradient></defs><defs><linearGradient id="grad1_1" x1="50%" y1="100%" x2="100%" y2="0%"><stop offset="10%" stop-color="#2e3035" stop-opacity="1"></stop><stop offset="90%" stop-color="#30394f" stop-opacity="1"></stop></linearGradient></defs><defs><linearGradient id="grad1_2" x1="50%" y1="100%" x2="100%" y2="0%"><stop offset="10%" stop-color="#304269" stop-opacity="1"></stop><stop offset="90%" stop-color="#30394f" stop-opacity="1"></stop></linearGradient></defs><defs><linearGradient id="grad1_3" x1="50%" y1="100%" x2="100%" y2="0%"><stop offset="10%" stop-color="#304269" stop-opacity="1"></stop><stop offset="90%" stop-color="#314a85" stop-opacity="1"></stop></linearGradient></defs><defs><linearGradient id="grad1_4" x1="50%" y1="100%" x2="100%" y2="0%"><stop offset="10%" stop-color="#3352a0" stop-opacity="1"></stop><stop offset="90%" stop-color="#314a85" stop-opacity="1"></stop></linearGradient></defs><defs><linearGradient id="grad1_5" x1="50%" y1="100%" x2="100%" y2="0%"><stop offset="10%" stop-color="#3352a0" stop-opacity="1"></stop><stop offset="90%" stop-color="#3a5abc" stop-opacity="1"></stop></linearGradient></defs><defs><linearGradient id="grad1_6" x1="50%" y1="100%" x2="100%" y2="0%"><stop offset="10%" stop-color="#4660d7" stop-opacity="1"></stop><stop offset="90%" stop-color="#3a5abc" stop-opacity="1"></stop></linearGradient></defs><defs><linearGradient id="grad1_7" x1="50%" y1="100%" x2="100%" y2="0%"><stop offset="10%" stop-color="#4660d7" stop-opacity="1"></stop><stop offset="90%" stop-color="#5865f2" stop-opacity="1"></stop></linearGradient></defs><defs><linearGradient id="grad2_0" x1="0%" y1="100%" x2="50%" y2="0%"><stop offset="10%" stop-color="#2e3035" stop-opacity="1"></stop><stop offset="90%" stop-color="#2e3035" stop-opacity="1"></stop></linearGradient></defs><defs><linearGradient id="grad2_1" x1="0%" y1="100%" x2="50%" y2="0%"><stop offset="10%" stop-color="#30394f" stop-opacity="1"></stop><stop offset="90%" stop-color="#2e3035" stop-opacity="1"></stop></linearGradient></defs><defs><linearGradient id="grad2_2" x1="0%" y1="100%" x2="50%" y2="0%"><stop offset="10%" stop-color="#30394f" stop-opacity="1"></stop><stop offset="90%" stop-color="#304269" stop-opacity="1"></stop></linearGradient></defs><defs><linearGradient id="grad2_3" x1="0%" y1="100%" x2="50%" y2="0%"><stop offset="10%" stop-color="#314a85" stop-opacity="1"></stop><stop offset="90%" stop-color="#304269" stop-opacity="1"></stop></linearGradient></defs><defs><linearGradient id="grad2_4" x1="0%" y1="100%" x2="50%" y2="0%"><stop offset="10%" stop-color="#314a85" stop-opacity="1"></stop><stop offset="90%" stop-color="#3352a0" stop-opacity="1"></stop></linearGradient></defs><defs><linearGradient id="grad2_5" x1="0%" y1="100%" x2="50%" y2="0%"><stop offset="10%" stop-color="#3a5abc" stop-opacity="1"></stop><stop offset="90%" stop-color="#3352a0" stop-opacity="1"></stop></linearGradient></defs><defs><linearGradient id="grad2_6" x1="0%" y1="100%" x2="50%" y2="0%"><stop offset="10%" stop-color="#3a5abc" stop-opacity="1"></stop><stop offset="90%" stop-color="#4660d7" stop-opacity="1"></stop></linearGradient></defs><defs><linearGradient id="grad2_7" x1="0%" y1="100%" x2="50%" y2="0%"><stop offset="10%" stop-color="#5865f2" stop-opacity="1"></stop><stop offset="90%" stop-color="#4660d7" stop-opacity="1"></stop></linearGradient></defs><g transform="translate(900, 450)"><path d="M-450 0C-444.5 -89.6 -439 -179.2 -389.7 -225C-340.4 -270.8 -247.3 -272.9 -175 -303.1C-102.7 -333.3 -51.4 -391.7 0 -450L0 0Z" fill="#4f63e5"></path><path d="M-393.7 0C-388.9 -78.4 -384.1 -156.8 -341 -196.9C-297.8 -237 -216.3 -238.8 -153.1 -265.2C-89.9 -291.7 -45 -342.7 0 -393.7L0 0Z" fill="#405dca"></path><path d="M-337.5 0C-333.4 -67.2 -329.3 -134.4 -292.3 -168.8C-255.3 -203.1 -185.4 -204.7 -131.3 -227.3C-77.1 -250 -38.5 -293.7 0 -337.5L0 0Z" fill="#3656ae"></path><path d="M-281.2 0C-277.8 -56 -274.4 -112 -243.6 -140.6C-212.7 -169.3 -154.5 -170.6 -109.4 -189.4C-64.2 -208.3 -32.1 -244.8 0 -281.2L0 0Z" fill="#324e93"></path><path d="M-225 0C-222.3 -44.8 -219.5 -89.6 -194.9 -112.5C-170.2 -135.4 -123.6 -136.5 -87.5 -151.6C-51.4 -166.7 -25.7 -195.8 0 -225L0 0Z" fill="#304677"></path><path d="M-168.7 0C-166.7 -33.6 -164.6 -67.2 -146.1 -84.4C-127.6 -101.6 -92.7 -102.3 -65.6 -113.7C-38.5 -125 -19.3 -146.9 0 -168.7L0 0Z" fill="#303e5c"></path><path d="M-112.5 0C-111.1 -22.4 -109.8 -44.8 -97.4 -56.3C-85.1 -67.7 -61.8 -68.2 -43.8 -75.8C-25.7 -83.3 -12.8 -97.9 0 -112.5L0 0Z" fill="#2f3542"></path><path d="M-56.2 0C-55.6 -11.2 -54.9 -22.4 -48.7 -28.1C-42.5 -33.9 -30.9 -34.1 -21.9 -37.9C-12.8 -41.7 -6.4 -49 0 -56.2L0 0Z" fill="#2e3035"></path></g><g transform="translate(0, 0)"><path d="M450 0C436.9 77.5 423.8 155 388 224C352.1 293 293.5 353.5 225 389.7C156.5 426 78.3 438 0 450L0 0Z" fill="#4f63e5"></path><path d="M393.8 0C382.3 67.8 370.9 135.6 339.5 196C308.1 256.4 256.8 309.3 196.9 341C137 372.7 68.5 383.2 0 393.8L0 0Z" fill="#405dca"></path><path d="M337.5 0C327.7 58.1 317.9 116.3 291 168C264.1 219.7 220.1 265.1 168.8 292.3C117.4 319.5 58.7 328.5 0 337.5L0 0Z" fill="#3656ae"></path><path d="M281.3 0C273.1 48.4 264.9 96.9 242.5 140C220.1 183.1 183.4 220.9 140.6 243.6C97.8 266.2 48.9 273.7 0 281.3L0 0Z" fill="#324e93"></path><path d="M225 0C218.5 38.8 211.9 77.5 194 112C176.1 146.5 146.7 176.7 112.5 194.9C78.3 213 39.1 219 0 225L0 0Z" fill="#304677"></path><path d="M168.8 0C163.8 29.1 158.9 58.1 145.5 84C132 109.9 110 132.5 84.4 146.1C58.7 159.7 29.4 164.2 0 168.8L0 0Z" fill="#303e5c"></path><path d="M112.5 0C109.2 19.4 106 38.8 97 56C88 73.2 73.4 88.4 56.3 97.4C39.1 106.5 19.6 109.5 0 112.5L0 0Z" fill="#2f3542"></path><path d="M56.3 0C54.6 9.7 53 19.4 48.5 28C44 36.6 36.7 44.2 28.1 48.7C19.6 53.2 9.8 54.7 0 56.3L0 0Z" fill="#2e3035"></path></g></svg>