<svg id="visual" viewBox="0 0 900 600" width="900" height="600" xmlns="http://www.w3.org/2000/svg" xmlns:xlink="http://www.w3.org/1999/xlink" version="1.1"><rect x="0" y="0" width="900" height="600" fill="#2E3035"></rect><defs><linearGradient id="grad1_0" x1="33.3%" y1="0%" x2="100%" y2="100%"><stop offset="20%" stop-color="#5865f2" stop-opacity="1"></stop><stop offset="80%" stop-color="#5865f2" stop-opacity="1"></stop></linearGradient></defs><defs><linearGradient id="grad1_1" x1="33.3%" y1="0%" x2="100%" y2="100%"><stop offset="20%" stop-color="#5865f2" stop-opacity="1"></stop><stop offset="80%" stop-color="#4660d7" stop-opacity="1"></stop></linearGradient></defs><defs><linearGradient id="grad1_2" x1="33.3%" y1="0%" x2="100%" y2="100%"><stop offset="20%" stop-color="#3a5abc" stop-opacity="1"></stop><stop offset="80%" stop-color="#4660d7" stop-opacity="1"></stop></linearGradient></defs><defs><linearGradient id="grad1_3" x1="33.3%" y1="0%" x2="100%" y2="100%"><stop offset="20%" stop-color="#3a5abc" stop-opacity="1"></stop><stop offset="80%" stop-color="#3352a0" stop-opacity="1"></stop></linearGradient></defs><defs><linearGradient id="grad1_4" x1="33.3%" y1="0%" x2="100%" y2="100%"><stop offset="20%" stop-color="#314a85" stop-opacity="1"></stop><stop offset="80%" stop-color="#3352a0" stop-opacity="1"></stop></linearGradient></defs><defs><linearGradient id="grad1_5" x1="33.3%" y1="0%" x2="100%" y2="100%"><stop offset="20%" stop-color="#314a85" stop-opacity="1"></stop><stop offset="80%" stop-color="#304269" stop-opacity="1"></stop></linearGradient></defs><defs><linearGradient id="grad1_6" x1="33.3%" y1="0%" x2="100%" y2="100%"><stop offset="20%" stop-color="#30394f" stop-opacity="1"></stop><stop offset="80%" stop-color="#304269" stop-opacity="1"></stop></linearGradient></defs><defs><linearGradient id="grad1_7" x1="33.3%" y1="0%" x2="100%" y2="100%"><stop offset="20%" stop-color="#30394f" stop-opacity="1"></stop><stop offset="80%" stop-color="#2e3035" stop-opacity="1"></stop></linearGradient></defs><defs><linearGradient id="grad2_0" x1="0%" y1="0%" x2="66.7%" y2="100%"><stop offset="20%" stop-color="#5865f2" stop-opacity="1"></stop><stop offset="80%" stop-color="#5865f2" stop-opacity="1"></stop></linearGradient></defs><defs><linearGradient id="grad2_1" x1="0%" y1="0%" x2="66.7%" y2="100%"><stop offset="20%" stop-color="#4660d7" stop-opacity="1"></stop><stop offset="80%" stop-color="#5865f2" stop-opacity="1"></stop></linearGradient></defs><defs><linearGradient id="grad2_2" x1="0%" y1="0%" x2="66.7%" y2="100%"><stop offset="20%" stop-color="#4660d7" stop-opacity="1"></stop><stop offset="80%" stop-color="#3a5abc" stop-opacity="1"></stop></linearGradient></defs><defs><linearGradient id="grad2_3" x1="0%" y1="0%" x2="66.7%" y2="100%"><stop offset="20%" stop-color="#3352a0" stop-opacity="1"></stop><stop offset="80%" stop-color="#3a5abc" stop-opacity="1"></stop></linearGradient></defs><defs><linearGradient id="grad2_4" x1="0%" y1="0%" x2="66.7%" y2="100%"><stop offset="20%" stop-color="#3352a0" stop-opacity="1"></stop><stop offset="80%" stop-color="#314a85" stop-opacity="1"></stop></linearGradient></defs><defs><linearGradient id="grad2_5" x1="0%" y1="0%" x2="66.7%" y2="100%"><stop offset="20%" stop-color="#304269" stop-opacity="1"></stop><stop offset="80%" stop-color="#314a85" stop-opacity="1"></stop></linearGradient></defs><defs><linearGradient id="grad2_6" x1="0%" y1="0%" x2="66.7%" y2="100%"><stop offset="20%" stop-color="#304269" stop-opacity="1"></stop><stop offset="80%" stop-color="#30394f" stop-opacity="1"></stop></linearGradient></defs><defs><linearGradient id="grad2_7" x1="0%" y1="0%" x2="66.7%" y2="100%"><stop offset="20%" stop-color="#2e3035" stop-opacity="1"></stop><stop offset="80%" stop-color="#30394f" stop-opacity="1"></stop></linearGradient></defs><g transform="translate(900, 0)"><path d="M0 540.8C-61.3 542 -122.7 543.3 -167.1 514.4C-211.6 485.5 -239.1 426.5 -284.5 391.6C-329.9 356.7 -393.1 345.9 -425.5 309.2C-458 272.4 -459.5 209.7 -473.6 153.9C-487.7 98 -514.3 49 -540.8 0L0 0Z" fill="#2f3542"></path><path d="M0 473.2C-53.7 474.3 -107.4 475.4 -146.2 450.1C-185.1 424.8 -209.2 373.1 -248.9 342.6C-288.6 312.1 -344 302.7 -372.4 270.5C-400.7 238.4 -402.1 183.5 -414.4 134.7C-426.7 85.8 -450 42.9 -473.2 0L0 0Z" fill="#303e5c"></path><path d="M0 405.6C-46 406.5 -92 407.4 -125.3 385.8C-158.7 364.1 -179.3 319.8 -213.4 293.7C-247.4 267.5 -294.8 259.4 -319.2 231.9C-343.5 204.3 -344.7 157.3 -355.2 115.4C-365.8 73.5 -385.7 36.8 -405.6 0L0 0Z" fill="#304677"></path><path d="M0 338C-38.3 338.8 -76.7 339.5 -104.5 321.5C-132.2 303.4 -149.4 266.5 -177.8 244.7C-206.2 222.9 -245.7 216.2 -266 193.2C-286.2 170.3 -287.2 131.1 -296 96.2C-304.8 61.3 -321.4 30.6 -338 0L0 0Z" fill="#324e93"></path><path d="M0 270.4C-30.7 271 -61.3 271.6 -83.6 257.2C-105.8 242.7 -119.5 213.2 -142.2 195.8C-164.9 178.3 -196.6 173 -212.8 154.6C-229 136.2 -229.8 104.9 -236.8 76.9C-243.9 49 -257.1 24.5 -270.4 0L0 0Z" fill="#3656ae"></path><path d="M0 202.8C-23 203.3 -46 203.7 -62.7 192.9C-79.3 182 -89.7 159.9 -106.7 146.8C-123.7 133.8 -147.4 129.7 -159.6 115.9C-171.7 102.2 -172.3 78.7 -177.6 57.7C-182.9 36.8 -192.9 18.4 -202.8 0L0 0Z" fill="#405dca"></path><path d="M0 135.2C-15.3 135.5 -30.7 135.8 -41.8 128.6C-52.9 121.4 -59.8 106.6 -71.1 97.9C-82.5 89.2 -98.3 86.5 -106.4 77.3C-114.5 68.1 -114.9 52.4 -118.4 38.5C-121.9 24.5 -128.6 12.3 -135.2 0L0 0Z" fill="#4f63e5"></path><path d="M0 67.6C-7.7 67.8 -15.3 67.9 -20.9 64.3C-26.4 60.7 -29.9 53.3 -35.6 48.9C-41.2 44.6 -49.1 43.2 -53.2 38.6C-57.2 34.1 -57.4 26.2 -59.2 19.2C-61 12.3 -64.3 6.1 -67.6 0L0 0Z" fill="#5865f2"></path></g><g transform="translate(0, 600)"><path d="M0 -540.8C58.2 -537 116.4 -533.2 167.1 -514.4C217.8 -495.5 261 -461.7 311.5 -428.8C362 -395.8 419.8 -363.8 429.6 -312.1C439.4 -260.4 401.3 -189.1 411.8 -133.8C422.4 -78.5 481.6 -39.3 540.8 0L0 0Z" fill="#2f3542"></path><path d="M0 -473.2C50.9 -469.9 101.9 -466.5 146.2 -450.1C190.6 -433.6 228.4 -404 272.6 -375.2C316.8 -346.4 367.3 -318.3 375.9 -273.1C384.5 -227.9 351.1 -165.5 360.3 -117.1C369.6 -68.7 421.4 -34.3 473.2 0L0 0Z" fill="#303e5c"></path><path d="M0 -405.6C43.7 -402.8 87.3 -399.9 125.3 -385.8C163.4 -371.7 195.8 -346.3 233.6 -321.6C271.5 -296.9 314.8 -272.9 322.2 -234.1C329.5 -195.3 300.9 -141.8 308.9 -100.4C316.8 -58.9 361.2 -29.4 405.6 0L0 0Z" fill="#304677"></path><path d="M0 -338C36.4 -335.6 72.8 -333.2 104.5 -321.5C136.1 -309.7 163.2 -288.6 194.7 -268C226.3 -247.4 262.4 -227.4 268.5 -195.1C274.6 -162.8 250.8 -118.2 257.4 -83.6C264 -49.1 301 -24.5 338 0L0 0Z" fill="#324e93"></path><path d="M0 -270.4C29.1 -268.5 58.2 -266.6 83.6 -257.2C108.9 -247.8 130.5 -230.9 155.8 -214.4C181 -197.9 209.9 -181.9 214.8 -156.1C219.7 -130.2 200.6 -94.5 205.9 -66.9C211.2 -39.3 240.8 -19.6 270.4 0L0 0Z" fill="#3656ae"></path><path d="M0 -202.8C21.8 -201.4 43.7 -199.9 62.7 -192.9C81.7 -185.8 97.9 -173.1 116.8 -160.8C135.8 -148.4 157.4 -136.4 161.1 -117C164.8 -97.7 150.5 -70.9 154.4 -50.2C158.4 -29.4 180.6 -14.7 202.8 0L0 0Z" fill="#405dca"></path><path d="M0 -135.2C14.6 -134.3 29.1 -133.3 41.8 -128.6C54.5 -123.9 65.3 -115.4 77.9 -107.2C90.5 -99 104.9 -91 107.4 -78C109.8 -65.1 100.3 -47.3 103 -33.5C105.6 -19.6 120.4 -9.8 135.2 0L0 0Z" fill="#4f63e5"></path><path d="M0 -67.6C7.3 -67.1 14.6 -66.6 20.9 -64.3C27.2 -61.9 32.6 -57.7 38.9 -53.6C45.3 -49.5 52.5 -45.5 53.7 -39C54.9 -32.6 50.2 -23.6 51.5 -16.7C52.8 -9.8 60.2 -4.9 67.6 0L0 0Z" fill="#5865f2"></path></g></svg>