<svg id="visual" viewBox="0 0 540 960" width="540" height="960" xmlns="http://www.w3.org/2000/svg" xmlns:xlink="http://www.w3.org/1999/xlink" version="1.1"><rect x="0" y="0" width="540" height="960" fill="#2E3035"></rect><defs><linearGradient id="grad1_0" x1="0%" y1="100%" x2="100%" y2="0%"><stop offset="30%" stop-color="#5865f2" stop-opacity="1"></stop><stop offset="70%" stop-color="#5865f2" stop-opacity="1"></stop></linearGradient></defs><defs><linearGradient id="grad1_1" x1="0%" y1="100%" x2="100%" y2="0%"><stop offset="30%" stop-color="#5865f2" stop-opacity="1"></stop><stop offset="70%" stop-color="#324e93" stop-opacity="1"></stop></linearGradient></defs><defs><linearGradient id="grad1_2" x1="0%" y1="100%" x2="100%" y2="0%"><stop offset="30%" stop-color="#2e3035" stop-opacity="1"></stop><stop offset="70%" stop-color="#324e93" stop-opacity="1"></stop></linearGradient></defs><defs><linearGradient id="grad2_0" x1="0%" y1="100%" x2="100%" y2="0%"><stop offset="30%" stop-color="#5865f2" stop-opacity="1"></stop><stop offset="70%" stop-color="#5865f2" stop-opacity="1"></stop></linearGradient></defs><defs><linearGradient id="grad2_1" x1="0%" y1="100%" x2="100%" y2="0%"><stop offset="30%" stop-color="#324e93" stop-opacity="1"></stop><stop offset="70%" stop-color="#5865f2" stop-opacity="1"></stop></linearGradient></defs><defs><linearGradient id="grad2_2" x1="0%" y1="100%" x2="100%" y2="0%"><stop offset="30%" stop-color="#324e93" stop-opacity="1"></stop><stop offset="70%" stop-color="#2e3035" stop-opacity="1"></stop></linearGradient></defs><g transform="translate(540, 960)"><path d="M-459 0C-425.4 -67.3 -391.7 -134.7 -357.7 -206.5C-323.6 -278.3 -289.2 -354.7 -229.5 -397.5C-169.8 -440.3 -84.9 -449.7 0 -459L0 0Z" fill="#304063"></path><path d="M-306 0C-283.6 -44.9 -261.1 -89.8 -238.4 -137.7C-215.7 -185.6 -192.8 -236.4 -153 -265C-113.2 -293.6 -56.6 -299.8 0 -306L0 0Z" fill="#3d5bc3"></path><path d="M-153 0C-141.8 -22.4 -130.6 -44.9 -119.2 -68.8C-107.9 -92.8 -96.4 -118.2 -76.5 -132.5C-56.6 -146.8 -28.3 -149.9 0 -153L0 0Z" fill="#5865f2"></path></g><g transform="translate(0, 0)"><path d="M459 0C450.5 86.4 442.1 172.8 397.5 229.5C352.9 286.2 272.3 313.1 200 346.4C127.7 379.7 63.9 419.4 0 459L0 0Z" fill="#304063"></path><path d="M306 0C300.4 57.6 294.7 115.2 265 153C235.3 190.8 181.5 208.7 133.3 230.9C85.2 253.1 42.6 279.6 0 306L0 0Z" fill="#3d5bc3"></path><path d="M153 0C150.2 28.8 147.4 57.6 132.5 76.5C117.6 95.4 90.8 104.4 66.7 115.5C42.6 126.6 21.3 139.8 0 153L0 0Z" fill="#5865f2"></path></g></svg>