<svg id="visual" viewBox="0 0 900 600" width="900" height="600" xmlns="http://www.w3.org/2000/svg" xmlns:xlink="http://www.w3.org/1999/xlink" version="1.1"><rect x="0" y="0" width="900" height="600" fill="#5865F2"></rect><defs><linearGradient id="grad1_0" x1="33.3%" y1="100%" x2="100%" y2="0%"><stop offset="20%" stop-color="#2e3035" stop-opacity="1"></stop><stop offset="80%" stop-color="#2e3035" stop-opacity="1"></stop></linearGradient></defs><defs><linearGradient id="grad1_1" x1="33.3%" y1="100%" x2="100%" y2="0%"><stop offset="20%" stop-color="#2e3035" stop-opacity="1"></stop><stop offset="80%" stop-color="#30394f" stop-opacity="1"></stop></linearGradient></defs><defs><linearGradient id="grad1_2" x1="33.3%" y1="100%" x2="100%" y2="0%"><stop offset="20%" stop-color="#304269" stop-opacity="1"></stop><stop offset="80%" stop-color="#30394f" stop-opacity="1"></stop></linearGradient></defs><defs><linearGradient id="grad1_3" x1="33.3%" y1="100%" x2="100%" y2="0%"><stop offset="20%" stop-color="#304269" stop-opacity="1"></stop><stop offset="80%" stop-color="#314a85" stop-opacity="1"></stop></linearGradient></defs><defs><linearGradient id="grad1_4" x1="33.3%" y1="100%" x2="100%" y2="0%"><stop offset="20%" stop-color="#3352a0" stop-opacity="1"></stop><stop offset="80%" stop-color="#314a85" stop-opacity="1"></stop></linearGradient></defs><defs><linearGradient id="grad1_5" x1="33.3%" y1="100%" x2="100%" y2="0%"><stop offset="20%" stop-color="#3352a0" stop-opacity="1"></stop><stop offset="80%" stop-color="#3a5abc" stop-opacity="1"></stop></linearGradient></defs><defs><linearGradient id="grad1_6" x1="33.3%" y1="100%" x2="100%" y2="0%"><stop offset="20%" stop-color="#4660d7" stop-opacity="1"></stop><stop offset="80%" stop-color="#3a5abc" stop-opacity="1"></stop></linearGradient></defs><defs><linearGradient id="grad1_7" x1="33.3%" y1="100%" x2="100%" y2="0%"><stop offset="20%" stop-color="#4660d7" stop-opacity="1"></stop><stop offset="80%" stop-color="#5865f2" stop-opacity="1"></stop></linearGradient></defs><defs><linearGradient id="grad2_0" x1="0%" y1="100%" x2="66.7%" y2="0%"><stop offset="20%" stop-color="#2e3035" stop-opacity="1"></stop><stop offset="80%" stop-color="#2e3035" stop-opacity="1"></stop></linearGradient></defs><defs><linearGradient id="grad2_1" x1="0%" y1="100%" x2="66.7%" y2="0%"><stop offset="20%" stop-color="#30394f" stop-opacity="1"></stop><stop offset="80%" stop-color="#2e3035" stop-opacity="1"></stop></linearGradient></defs><defs><linearGradient id="grad2_2" x1="0%" y1="100%" x2="66.7%" y2="0%"><stop offset="20%" stop-color="#30394f" stop-opacity="1"></stop><stop offset="80%" stop-color="#304269" stop-opacity="1"></stop></linearGradient></defs><defs><linearGradient id="grad2_3" x1="0%" y1="100%" x2="66.7%" y2="0%"><stop offset="20%" stop-color="#314a85" stop-opacity="1"></stop><stop offset="80%" stop-color="#304269" stop-opacity="1"></stop></linearGradient></defs><defs><linearGradient id="grad2_4" x1="0%" y1="100%" x2="66.7%" y2="0%"><stop offset="20%" stop-color="#314a85" stop-opacity="1"></stop><stop offset="80%" stop-color="#3352a0" stop-opacity="1"></stop></linearGradient></defs><defs><linearGradient id="grad2_5" x1="0%" y1="100%" x2="66.7%" y2="0%"><stop offset="20%" stop-color="#3a5abc" stop-opacity="1"></stop><stop offset="80%" stop-color="#3352a0" stop-opacity="1"></stop></linearGradient></defs><defs><linearGradient id="grad2_6" x1="0%" y1="100%" x2="66.7%" y2="0%"><stop offset="20%" stop-color="#3a5abc" stop-opacity="1"></stop><stop offset="80%" stop-color="#4660d7" stop-opacity="1"></stop></linearGradient></defs><defs><linearGradient id="grad2_7" x1="0%" y1="100%" x2="66.7%" y2="0%"><stop offset="20%" stop-color="#5865f2" stop-opacity="1"></stop><stop offset="80%" stop-color="#4660d7" stop-opacity="1"></stop></linearGradient></defs><g transform="translate(900, 600)"><path d="M-540.8 0C-506.6 -47.6 -472.4 -95.3 -460.3 -149.6C-448.2 -203.8 -458.1 -264.8 -437.5 -317.9C-416.9 -371 -365.8 -416.4 -308.6 -424.7C-251.4 -433.1 -188.1 -404.3 -135.7 -417.5C-83.2 -430.7 -41.6 -485.8 0 -540.8L0 0Z" fill="#4f63e5"></path><path d="M-473.2 0C-443.3 -41.7 -413.4 -83.4 -402.8 -130.9C-392.2 -178.4 -400.9 -231.7 -382.8 -278.2C-364.8 -324.7 -320.1 -364.4 -270 -371.6C-220 -378.9 -164.6 -353.8 -118.7 -365.3C-72.8 -376.9 -36.4 -425 0 -473.2L0 0Z" fill="#405dca"></path><path d="M-405.6 0C-380 -35.7 -354.3 -71.5 -345.2 -112.2C-336.1 -152.9 -343.6 -198.6 -328.2 -238.4C-312.7 -278.3 -274.3 -312.3 -231.4 -318.6C-188.5 -324.8 -141.1 -303.3 -101.7 -313.1C-62.4 -323 -31.2 -364.3 0 -405.6L0 0Z" fill="#3656ae"></path><path d="M-338 0C-316.6 -29.8 -295.3 -59.6 -287.7 -93.5C-280.1 -127.4 -286.3 -165.5 -273.5 -198.7C-260.6 -231.9 -228.6 -260.3 -192.9 -265.5C-157.1 -270.7 -117.6 -252.7 -84.8 -260.9C-52 -269.2 -26 -303.6 0 -338L0 0Z" fill="#324e93"></path><path d="M-270.4 0C-253.3 -23.8 -236.2 -47.6 -230.2 -74.8C-224.1 -101.9 -229.1 -132.4 -218.8 -158.9C-208.5 -185.5 -182.9 -208.2 -154.3 -212.4C-125.7 -216.5 -94.1 -202.2 -67.8 -208.8C-41.6 -215.3 -20.8 -242.9 0 -270.4L0 0Z" fill="#304677"></path><path d="M-202.8 0C-190 -17.9 -177.2 -35.7 -172.6 -56.1C-168.1 -76.4 -171.8 -99.3 -164.1 -119.2C-156.4 -139.1 -137.2 -156.2 -115.7 -159.3C-94.3 -162.4 -70.5 -151.6 -50.9 -156.6C-31.2 -161.5 -15.6 -182.2 0 -202.8L0 0Z" fill="#303e5c"></path><path d="M-135.2 0C-126.7 -11.9 -118.1 -23.8 -115.1 -37.4C-112 -51 -114.5 -66.2 -109.4 -79.5C-104.2 -92.8 -91.4 -104.1 -77.1 -106.2C-62.8 -108.3 -47 -101.1 -33.9 -104.4C-20.8 -107.7 -10.4 -121.4 0 -135.2L0 0Z" fill="#2f3542"></path><path d="M-67.6 0C-63.3 -6 -59.1 -11.9 -57.5 -18.7C-56 -25.5 -57.3 -33.1 -54.7 -39.7C-52.1 -46.4 -45.7 -52.1 -38.6 -53.1C-31.4 -54.1 -23.5 -50.5 -17 -52.2C-10.4 -53.8 -5.2 -60.7 0 -67.6L0 0Z" fill="#2e3035"></path></g><g transform="translate(0, 0)"><path d="M540.8 0C509.8 51.6 478.8 103.2 453.7 147.4C428.5 191.6 409.4 228.3 393.2 285.7C377 343.1 363.8 421.1 317.9 437.5C272 453.9 193.5 408.7 135 415.6C76.6 422.5 38.3 481.7 0 540.8L0 0Z" fill="#4f63e5"></path><path d="M473.2 0C446.1 45.2 418.9 90.3 396.9 129C375 167.6 358.2 199.7 344 250C329.9 300.2 318.3 368.5 278.2 382.8C238 397.2 169.3 357.6 118.2 363.7C67 369.7 33.5 421.5 0 473.2L0 0Z" fill="#405dca"></path><path d="M405.6 0C382.3 38.7 359.1 77.4 340.2 110.6C321.4 143.7 307 171.2 294.9 214.2C282.7 257.3 272.8 315.9 238.4 328.2C204 340.5 145.1 306.5 101.3 311.7C57.5 316.9 28.7 361.3 0 405.6L0 0Z" fill="#3656ae"></path><path d="M338 0C318.6 32.3 299.2 64.5 283.5 92.1C267.8 119.7 255.9 142.7 245.7 178.5C235.6 214.4 227.4 263.2 198.7 273.5C170 283.7 120.9 255.4 84.4 259.8C47.9 264.1 23.9 301.1 0 338L0 0Z" fill="#324e93"></path><path d="M270.4 0C254.9 25.8 239.4 51.6 226.8 73.7C214.3 95.8 204.7 114.1 196.6 142.8C188.5 171.5 181.9 210.6 158.9 218.8C136 227 96.7 204.3 67.5 207.8C38.3 211.3 19.2 240.8 0 270.4L0 0Z" fill="#304677"></path><path d="M202.8 0C191.2 19.4 179.5 38.7 170.1 55.3C160.7 71.8 153.5 85.6 147.4 107.1C141.4 128.6 136.4 157.9 119.2 164.1C102 170.2 72.6 153.3 50.6 155.9C28.7 158.5 14.4 180.6 0 202.8L0 0Z" fill="#303e5c"></path><path d="M135.2 0C127.4 12.9 119.7 25.8 113.4 36.9C107.1 47.9 102.3 57.1 98.3 71.4C94.2 85.8 90.9 105.3 79.5 109.4C68 113.5 48.4 102.2 33.8 103.9C19.2 105.6 9.6 120.4 0 135.2L0 0Z" fill="#2f3542"></path><path d="M67.6 0C63.7 6.5 59.8 12.9 56.7 18.4C53.6 23.9 51.2 28.5 49.1 35.7C47.1 42.9 45.5 52.6 39.7 54.7C34 56.7 24.2 51.1 16.9 52C9.6 52.8 4.8 60.2 0 67.6L0 0Z" fill="#2e3035"></path></g></svg>