<svg id="visual" viewBox="0 0 900 900" width="900" height="900" xmlns="http://www.w3.org/2000/svg" xmlns:xlink="http://www.w3.org/1999/xlink" version="1.1"><rect x="0" y="0" width="900" height="900" fill="#5865F2"></rect><defs><linearGradient id="grad1_0" x1="0%" y1="100%" x2="100%" y2="0%"><stop offset="30%" stop-color="#2e3035" stop-opacity="1"></stop><stop offset="70%" stop-color="#2e3035" stop-opacity="1"></stop></linearGradient></defs><defs><linearGradient id="grad1_1" x1="0%" y1="100%" x2="100%" y2="0%"><stop offset="30%" stop-color="#2e3035" stop-opacity="1"></stop><stop offset="70%" stop-color="#30394f" stop-opacity="1"></stop></linearGradient></defs><defs><linearGradient id="grad1_2" x1="0%" y1="100%" x2="100%" y2="0%"><stop offset="30%" stop-color="#304269" stop-opacity="1"></stop><stop offset="70%" stop-color="#30394f" stop-opacity="1"></stop></linearGradient></defs><defs><linearGradient id="grad1_3" x1="0%" y1="100%" x2="100%" y2="0%"><stop offset="30%" stop-color="#304269" stop-opacity="1"></stop><stop offset="70%" stop-color="#314a85" stop-opacity="1"></stop></linearGradient></defs><defs><linearGradient id="grad1_4" x1="0%" y1="100%" x2="100%" y2="0%"><stop offset="30%" stop-color="#3352a0" stop-opacity="1"></stop><stop offset="70%" stop-color="#314a85" stop-opacity="1"></stop></linearGradient></defs><defs><linearGradient id="grad1_5" x1="0%" y1="100%" x2="100%" y2="0%"><stop offset="30%" stop-color="#3352a0" stop-opacity="1"></stop><stop offset="70%" stop-color="#3a5abc" stop-opacity="1"></stop></linearGradient></defs><defs><linearGradient id="grad1_6" x1="0%" y1="100%" x2="100%" y2="0%"><stop offset="30%" stop-color="#4660d7" stop-opacity="1"></stop><stop offset="70%" stop-color="#3a5abc" stop-opacity="1"></stop></linearGradient></defs><defs><linearGradient id="grad1_7" x1="0%" y1="100%" x2="100%" y2="0%"><stop offset="30%" stop-color="#4660d7" stop-opacity="1"></stop><stop offset="70%" stop-color="#5865f2" stop-opacity="1"></stop></linearGradient></defs><defs><linearGradient id="grad2_0" x1="0%" y1="100%" x2="100%" y2="0%"><stop offset="30%" stop-color="#2e3035" stop-opacity="1"></stop><stop offset="70%" stop-color="#2e3035" stop-opacity="1"></stop></linearGradient></defs><defs><linearGradient id="grad2_1" x1="0%" y1="100%" x2="100%" y2="0%"><stop offset="30%" stop-color="#30394f" stop-opacity="1"></stop><stop offset="70%" stop-color="#2e3035" stop-opacity="1"></stop></linearGradient></defs><defs><linearGradient id="grad2_2" x1="0%" y1="100%" x2="100%" y2="0%"><stop offset="30%" stop-color="#30394f" stop-opacity="1"></stop><stop offset="70%" stop-color="#304269" stop-opacity="1"></stop></linearGradient></defs><defs><linearGradient id="grad2_3" x1="0%" y1="100%" x2="100%" y2="0%"><stop offset="30%" stop-color="#314a85" stop-opacity="1"></stop><stop offset="70%" stop-color="#304269" stop-opacity="1"></stop></linearGradient></defs><defs><linearGradient id="grad2_4" x1="0%" y1="100%" x2="100%" y2="0%"><stop offset="30%" stop-color="#314a85" stop-opacity="1"></stop><stop offset="70%" stop-color="#3352a0" stop-opacity="1"></stop></linearGradient></defs><defs><linearGradient id="grad2_5" x1="0%" y1="100%" x2="100%" y2="0%"><stop offset="30%" stop-color="#3a5abc" stop-opacity="1"></stop><stop offset="70%" stop-color="#3352a0" stop-opacity="1"></stop></linearGradient></defs><defs><linearGradient id="grad2_6" x1="0%" y1="100%" x2="100%" y2="0%"><stop offset="30%" stop-color="#3a5abc" stop-opacity="1"></stop><stop offset="70%" stop-color="#4660d7" stop-opacity="1"></stop></linearGradient></defs><defs><linearGradient id="grad2_7" x1="0%" y1="100%" x2="100%" y2="0%"><stop offset="30%" stop-color="#5865f2" stop-opacity="1"></stop><stop offset="70%" stop-color="#4660d7" stop-opacity="1"></stop></linearGradient></defs><g transform="translate(900, 900)"><path d="M-636.4 0C-548.8 -69.7 -461.2 -139.4 -419.2 -242C-377.1 -344.6 -380.5 -479.9 -318.2 -551.1C-255.9 -622.3 -128 -629.4 0 -636.4L0 0Z" fill="#4f63e5"></path><path d="M-556.8 0C-480.2 -61 -403.6 -122 -366.8 -211.8C-329.9 -301.5 -332.9 -419.9 -278.4 -482.2C-223.9 -544.5 -112 -550.7 0 -556.8L0 0Z" fill="#405dca"></path><path d="M-477.3 0C-411.6 -52.3 -345.9 -104.6 -314.4 -181.5C-282.8 -258.4 -285.4 -359.9 -238.6 -413.4C-191.9 -466.8 -96 -472 0 -477.3L0 0Z" fill="#3656ae"></path><path d="M-397.7 0C-343 -43.6 -288.3 -87.2 -262 -151.3C-235.7 -215.3 -237.8 -300 -198.9 -344.5C-160 -389 -80 -393.4 0 -397.7L0 0Z" fill="#324e93"></path><path d="M-318.2 0C-274.4 -34.9 -230.6 -69.7 -209.6 -121C-188.5 -172.3 -190.2 -240 -159.1 -275.6C-128 -311.2 -64 -314.7 0 -318.2L0 0Z" fill="#304677"></path><path d="M-238.6 0C-205.8 -26.1 -173 -52.3 -157.2 -90.8C-141.4 -129.2 -142.7 -180 -119.3 -206.7C-96 -233.4 -48 -236 0 -238.6L0 0Z" fill="#303e5c"></path><path d="M-159.1 0C-137.2 -17.4 -115.3 -34.9 -104.8 -60.5C-94.3 -86.1 -95.1 -120 -79.5 -137.8C-64 -155.6 -32 -157.3 0 -159.1L0 0Z" fill="#2f3542"></path><path d="M-79.5 0C-68.6 -8.7 -57.7 -17.4 -52.4 -30.3C-47.1 -43.1 -47.6 -60 -39.8 -68.9C-32 -77.8 -16 -78.7 0 -79.5L0 0Z" fill="#2e3035"></path></g><g transform="translate(0, 0)"><path d="M636.4 0C580.7 88.1 525 176.2 478.9 276.5C432.8 376.8 396.4 489.1 318.2 551.1C240 613.1 120 624.8 0 636.4L0 0Z" fill="#4f63e5"></path><path d="M556.8 0C508.1 77.1 459.4 154.2 419 241.9C378.7 329.7 346.9 428 278.4 482.2C210 536.5 105 546.7 0 556.8L0 0Z" fill="#405dca"></path><path d="M477.3 0C435.5 66.1 393.7 132.2 359.2 207.4C324.6 282.6 297.3 366.8 238.6 413.4C180 459.9 90 468.6 0 477.3L0 0Z" fill="#3656ae"></path><path d="M397.7 0C362.9 55.1 328.1 110.2 299.3 172.8C270.5 235.5 247.8 305.7 198.9 344.5C150 383.2 75 390.5 0 397.7L0 0Z" fill="#324e93"></path><path d="M318.2 0C290.3 44.1 262.5 88.1 239.5 138.2C216.4 188.4 198.2 244.6 159.1 275.6C120 306.6 60 312.4 0 318.2L0 0Z" fill="#304677"></path><path d="M238.6 0C217.8 33 196.9 66.1 179.6 103.7C162.3 141.3 148.7 183.4 119.3 206.7C90 229.9 45 234.3 0 238.6L0 0Z" fill="#303e5c"></path><path d="M159.1 0C145.2 22 131.2 44.1 119.7 69.1C108.2 94.2 99.1 122.3 79.5 137.8C60 153.3 30 156.2 0 159.1L0 0Z" fill="#2f3542"></path><path d="M79.5 0C72.6 11 65.6 22 59.9 34.6C54.1 47.1 49.6 61.1 39.8 68.9C30 76.6 15 78.1 0 79.5L0 0Z" fill="#2e3035"></path></g></svg>