<svg id="visual" viewBox="0 0 900 100" width="900" height="100" xmlns="http://www.w3.org/2000/svg" xmlns:xlink="http://www.w3.org/1999/xlink" version="1.1"><rect x="0" y="0" width="900" height="100" fill="#2E3035"></rect><defs><linearGradient id="grad1_0" x1="88.9%" y1="100%" x2="100%" y2="0%"><stop offset="-130%" stop-color="#5865f2" stop-opacity="1"></stop><stop offset="230%" stop-color="#5865f2" stop-opacity="1"></stop></linearGradient></defs><defs><linearGradient id="grad1_1" x1="88.9%" y1="100%" x2="100%" y2="0%"><stop offset="-130%" stop-color="#5865f2" stop-opacity="1"></stop><stop offset="230%" stop-color="#3d5bc3" stop-opacity="1"></stop></linearGradient></defs><defs><linearGradient id="grad1_2" x1="88.9%" y1="100%" x2="100%" y2="0%"><stop offset="-130%" stop-color="#324e93" stop-opacity="1"></stop><stop offset="230%" stop-color="#3d5bc3" stop-opacity="1"></stop></linearGradient></defs><defs><linearGradient id="grad1_3" x1="88.9%" y1="100%" x2="100%" y2="0%"><stop offset="-130%" stop-color="#324e93" stop-opacity="1"></stop><stop offset="230%" stop-color="#304063" stop-opacity="1"></stop></linearGradient></defs><defs><linearGradient id="grad1_4" x1="88.9%" y1="100%" x2="100%" y2="0%"><stop offset="-130%" stop-color="#2e3035" stop-opacity="1"></stop><stop offset="230%" stop-color="#304063" stop-opacity="1"></stop></linearGradient></defs><defs><linearGradient id="grad2_0" x1="0%" y1="100%" x2="11.1%" y2="0%"><stop offset="-130%" stop-color="#5865f2" stop-opacity="1"></stop><stop offset="230%" stop-color="#5865f2" stop-opacity="1"></stop></linearGradient></defs><defs><linearGradient id="grad2_1" x1="0%" y1="100%" x2="11.1%" y2="0%"><stop offset="-130%" stop-color="#3d5bc3" stop-opacity="1"></stop><stop offset="230%" stop-color="#5865f2" stop-opacity="1"></stop></linearGradient></defs><defs><linearGradient id="grad2_2" x1="0%" y1="100%" x2="11.1%" y2="0%"><stop offset="-130%" stop-color="#3d5bc3" stop-opacity="1"></stop><stop offset="230%" stop-color="#324e93" stop-opacity="1"></stop></linearGradient></defs><defs><linearGradient id="grad2_3" x1="0%" y1="100%" x2="11.1%" y2="0%"><stop offset="-130%" stop-color="#304063" stop-opacity="1"></stop><stop offset="230%" stop-color="#324e93" stop-opacity="1"></stop></linearGradient></defs><defs><linearGradient id="grad2_4" x1="0%" y1="100%" x2="11.1%" y2="0%"><stop offset="-130%" stop-color="#304063" stop-opacity="1"></stop><stop offset="230%" stop-color="#2e3035" stop-opacity="1"></stop></linearGradient></defs><g transform="translate(900, 100)"><path d="M-100 0C-99 -20.2 -97.9 -40.5 -86.6 -50C-75.3 -59.5 -53.6 -58.4 -37.5 -65C-21.4 -71.5 -10.7 -85.8 0 -100L0 0Z" fill="#30384c"></path><path d="M-80 0C-79.2 -16.2 -78.3 -32.4 -69.3 -40C-60.2 -47.6 -42.9 -46.7 -30 -52C-17.1 -57.2 -8.5 -68.6 0 -80L0 0Z" fill="#30477a"></path><path d="M-60 0C-59.4 -12.1 -58.8 -24.3 -52 -30C-45.2 -35.7 -32.2 -35 -22.5 -39C-12.8 -42.9 -6.4 -51.5 0 -60L0 0Z" fill="#3555ab"></path><path d="M-40 0C-39.6 -8.1 -39.2 -16.2 -34.6 -20C-30.1 -23.8 -21.5 -23.4 -15 -26C-8.5 -28.6 -4.3 -34.3 0 -40L0 0Z" fill="#4861db"></path><path d="M-20 0C-19.8 -4 -19.6 -8.1 -17.3 -10C-15.1 -11.9 -10.7 -11.7 -7.5 -13C-4.3 -14.3 -2.1 -17.2 0 -20L0 0Z" fill="#5865f2"></path></g><g transform="translate(0, 0)"><path d="M100 0C98 18.6 96.1 37.2 86.6 50C77.1 62.8 60.2 69.7 44.5 77.1C28.8 84.4 14.4 92.2 0 100L0 0Z" fill="#30384c"></path><path d="M80 0C78.4 14.9 76.9 29.8 69.3 40C61.7 50.2 48.1 55.8 35.6 61.7C23.1 67.5 11.5 73.8 0 80L0 0Z" fill="#30477a"></path><path d="M60 0C58.8 11.2 57.6 22.3 52 30C46.3 37.7 36.1 41.8 26.7 46.2C17.3 50.7 8.6 55.3 0 60L0 0Z" fill="#3555ab"></path><path d="M40 0C39.2 7.4 38.4 14.9 34.6 20C30.9 25.1 24.1 27.9 17.8 30.8C11.5 33.8 5.8 36.9 0 40L0 0Z" fill="#4861db"></path><path d="M20 0C19.6 3.7 19.2 7.4 17.3 10C15.4 12.6 12 13.9 8.9 15.4C5.8 16.9 2.9 18.4 0 20L0 0Z" fill="#5865f2"></path></g></svg>