<svg id="visual" viewBox="0 0 900 600" width="900" height="600" xmlns="http://www.w3.org/2000/svg" xmlns:xlink="http://www.w3.org/1999/xlink" version="1.1"><g stroke-width="1" stroke-linejoin="bevel"><path d="M433 364L372 332L367 493Z" fill="#3553a6" stroke="#3553a6"></path><path d="M372 332L283 429L367 493Z" fill="#3a59b9" stroke="#3a59b9"></path><path d="M283 429L315 490L367 493Z" fill="#303d5a" stroke="#303d5a"></path><path d="M372 332L321 311L283 429Z" fill="#2e3035" stroke="#2e3035"></path><path d="M321 311L229 380L283 429Z" fill="#324e93" stroke="#324e93"></path><path d="M283 429L193 472L315 490Z" fill="#5865f2" stroke="#5865f2"></path><path d="M511 502L526 368L433 364Z" fill="#5865f2" stroke="#5865f2"></path><path d="M433 364L539 269L372 332Z" fill="#324e93" stroke="#324e93"></path><path d="M372 332L300 234L321 311Z" fill="#2f3647" stroke="#2f3647"></path><path d="M398 600L511 502L367 493Z" fill="#415dcc" stroke="#415dcc"></path><path d="M367 493L511 502L433 364Z" fill="#3a59b9" stroke="#3a59b9"></path><path d="M229 380L193 472L283 429Z" fill="#3a59b9" stroke="#3a59b9"></path><path d="M285 600L367 493L315 490Z" fill="#4c61df" stroke="#4c61df"></path><path d="M285 600L398 600L367 493Z" fill="#4c61df" stroke="#4c61df"></path><path d="M410 161L300 234L372 332Z" fill="#314880" stroke="#314880"></path><path d="M321 311L166 319L229 380Z" fill="#415dcc" stroke="#415dcc"></path><path d="M193 472L285 600L315 490Z" fill="#314880" stroke="#314880"></path><path d="M511 502L588 428L526 368Z" fill="#415dcc" stroke="#415dcc"></path><path d="M588 428L561 304L526 368Z" fill="#324e93" stroke="#324e93"></path><path d="M526 368L539 269L433 364Z" fill="#303d5a" stroke="#303d5a"></path><path d="M561 304L539 269L526 368Z" fill="#324e93" stroke="#324e93"></path><path d="M300 234L166 319L321 311Z" fill="#2e3035" stroke="#2e3035"></path><path d="M229 380L139 401L193 472Z" fill="#4c61df" stroke="#4c61df"></path><path d="M166 319L139 401L229 380Z" fill="#4c61df" stroke="#4c61df"></path><path d="M193 472L204 600L285 600Z" fill="#2f3647" stroke="#2f3647"></path><path d="M398 600L504 600L511 502Z" fill="#5865f2" stroke="#5865f2"></path><path d="M511 502L615 502L588 428Z" fill="#2f3647" stroke="#2f3647"></path><path d="M117 511L204 600L193 472Z" fill="#4c61df" stroke="#4c61df"></path><path d="M631 220L538 228L539 269Z" fill="#2e3035" stroke="#2e3035"></path><path d="M539 269L410 161L372 332Z" fill="#3553a6" stroke="#3553a6"></path><path d="M538 228L410 161L539 269Z" fill="#2f3647" stroke="#2f3647"></path><path d="M300 234L233 188L166 319Z" fill="#415dcc" stroke="#415dcc"></path><path d="M592 600L615 502L511 502Z" fill="#2e3035" stroke="#2e3035"></path><path d="M588 428L691 419L561 304Z" fill="#314880" stroke="#314880"></path><path d="M306 126L233 188L300 234Z" fill="#4c61df" stroke="#4c61df"></path><path d="M139 401L117 511L193 472Z" fill="#415dcc" stroke="#415dcc"></path><path d="M504 600L592 600L511 502Z" fill="#2f3647" stroke="#2f3647"></path><path d="M410 161L306 126L300 234Z" fill="#5865f2" stroke="#5865f2"></path><path d="M166 319L85 328L139 401Z" fill="#30436d" stroke="#30436d"></path><path d="M139 401L0 461L117 511Z" fill="#324e93" stroke="#324e93"></path><path d="M84 165L85 328L166 319Z" fill="#3553a6" stroke="#3553a6"></path><path d="M0 600L115 600L117 511Z" fill="#2f3647" stroke="#2f3647"></path><path d="M117 511L115 600L204 600Z" fill="#3553a6" stroke="#3553a6"></path><path d="M492 87L382 92L410 161Z" fill="#314880" stroke="#314880"></path><path d="M410 161L382 92L306 126Z" fill="#3553a6" stroke="#3553a6"></path><path d="M726 505L691 419L615 502Z" fill="#415dcc" stroke="#415dcc"></path><path d="M615 502L691 419L588 428Z" fill="#4c61df" stroke="#4c61df"></path><path d="M561 304L631 220L539 269Z" fill="#5865f2" stroke="#5865f2"></path><path d="M730 289L631 220L561 304Z" fill="#4c61df" stroke="#4c61df"></path><path d="M538 228L492 87L410 161Z" fill="#5865f2" stroke="#5865f2"></path><path d="M576 89L492 87L538 228Z" fill="#30436d" stroke="#30436d"></path><path d="M592 600L672 600L615 502Z" fill="#314880" stroke="#314880"></path><path d="M0 276L0 397L85 328Z" fill="#415dcc" stroke="#415dcc"></path><path d="M85 328L0 397L139 401Z" fill="#415dcc" stroke="#415dcc"></path><path d="M672 600L726 505L615 502Z" fill="#415dcc" stroke="#415dcc"></path><path d="M691 419L730 289L561 304Z" fill="#30436d" stroke="#30436d"></path><path d="M306 126L191 88L233 188Z" fill="#30436d" stroke="#30436d"></path><path d="M233 188L84 165L166 319Z" fill="#5865f2" stroke="#5865f2"></path><path d="M273 0L191 88L306 126Z" fill="#5865f2" stroke="#5865f2"></path><path d="M273 0L306 126L382 92Z" fill="#3553a6" stroke="#3553a6"></path><path d="M0 397L0 461L139 401Z" fill="#2e3035" stroke="#2e3035"></path><path d="M132 100L84 165L233 188Z" fill="#30436d" stroke="#30436d"></path><path d="M784 377L730 289L691 419Z" fill="#303d5a" stroke="#303d5a"></path><path d="M631 220L576 89L538 228Z" fill="#303d5a" stroke="#303d5a"></path><path d="M692 79L576 89L631 220Z" fill="#303d5a" stroke="#303d5a"></path><path d="M191 88L132 100L233 188Z" fill="#3553a6" stroke="#3553a6"></path><path d="M84 165L0 276L85 328Z" fill="#2f3647" stroke="#2f3647"></path><path d="M0 162L0 276L84 165Z" fill="#5865f2" stroke="#5865f2"></path><path d="M814 310L738 237L730 289Z" fill="#415dcc" stroke="#415dcc"></path><path d="M730 289L738 237L631 220Z" fill="#4c61df" stroke="#4c61df"></path><path d="M0 461L0 600L117 511Z" fill="#3a59b9" stroke="#3a59b9"></path><path d="M535 0L402 0L492 87Z" fill="#2e3035" stroke="#2e3035"></path><path d="M492 87L402 0L382 92Z" fill="#2e3035" stroke="#2e3035"></path><path d="M191 88L79 0L132 100Z" fill="#3a59b9" stroke="#3a59b9"></path><path d="M726 505L784 377L691 419Z" fill="#30436d" stroke="#30436d"></path><path d="M402 0L273 0L382 92Z" fill="#314880" stroke="#314880"></path><path d="M273 0L239 0L191 88Z" fill="#415dcc" stroke="#415dcc"></path><path d="M576 89L535 0L492 87Z" fill="#2f3647" stroke="#2f3647"></path><path d="M612 0L535 0L576 89Z" fill="#30436d" stroke="#30436d"></path><path d="M0 138L0 162L84 165Z" fill="#324e93" stroke="#324e93"></path><path d="M0 138L84 165L132 100Z" fill="#3553a6" stroke="#3553a6"></path><path d="M814 310L762 196L738 237Z" fill="#4c61df" stroke="#4c61df"></path><path d="M738 237L762 196L631 220Z" fill="#3553a6" stroke="#3553a6"></path><path d="M784 377L814 310L730 289Z" fill="#2e3035" stroke="#2e3035"></path><path d="M79 0L0 138L132 100Z" fill="#3553a6" stroke="#3553a6"></path><path d="M762 196L692 79L631 220Z" fill="#303d5a" stroke="#303d5a"></path><path d="M726 505L834 507L784 377Z" fill="#324e93" stroke="#324e93"></path><path d="M784 377L900 430L814 310Z" fill="#30436d" stroke="#30436d"></path><path d="M822 600L834 507L726 505Z" fill="#314880" stroke="#314880"></path><path d="M692 79L612 0L576 89Z" fill="#3553a6" stroke="#3553a6"></path><path d="M672 600L822 600L726 505Z" fill="#314880" stroke="#314880"></path><path d="M239 0L79 0L191 88Z" fill="#303d5a" stroke="#303d5a"></path><path d="M763 0L669 0L692 79Z" fill="#2e3035" stroke="#2e3035"></path><path d="M692 79L669 0L612 0Z" fill="#3553a6" stroke="#3553a6"></path><path d="M900 209L768 89L762 196Z" fill="#324e93" stroke="#324e93"></path><path d="M762 196L768 89L692 79Z" fill="#415dcc" stroke="#415dcc"></path><path d="M834 507L900 430L784 377Z" fill="#3a59b9" stroke="#3a59b9"></path><path d="M814 310L900 209L762 196Z" fill="#5865f2" stroke="#5865f2"></path><path d="M900 529L900 430L834 507Z" fill="#3a59b9" stroke="#3a59b9"></path><path d="M822 600L900 529L834 507Z" fill="#3553a6" stroke="#3553a6"></path><path d="M900 430L900 289L814 310Z" fill="#303d5a" stroke="#303d5a"></path><path d="M79 0L0 0L0 138Z" fill="#5865f2" stroke="#5865f2"></path><path d="M822 600L900 600L900 529Z" fill="#324e93" stroke="#324e93"></path><path d="M900 289L900 209L814 310Z" fill="#314880" stroke="#314880"></path><path d="M900 75L763 0L768 89Z" fill="#415dcc" stroke="#415dcc"></path><path d="M768 89L763 0L692 79Z" fill="#3a59b9" stroke="#3a59b9"></path><path d="M900 209L900 75L768 89Z" fill="#3553a6" stroke="#3553a6"></path><path d="M900 75L900 0L763 0Z" fill="#3a59b9" stroke="#3a59b9"></path></g></svg>