<svg id="visual" viewBox="0 0 900 600" width="900" height="600" xmlns="http://www.w3.org/2000/svg" xmlns:xlink="http://www.w3.org/1999/xlink" version="1.1"><path d="M0 85L39 85L39 67L78 67L78 25L117 25L117 133L157 133L157 19L196 19L196 85L235 85L235 139L274 139L274 157L313 157L313 85L352 85L352 49L391 49L391 157L430 157L430 49L470 49L470 67L509 67L509 151L548 151L548 67L587 67L587 91L626 91L626 43L665 43L665 85L704 85L704 55L743 55L743 169L783 169L783 0L822 0L822 145L861 145L861 85L900 85L900 37L900 0L900 0L861 0L861 0L822 0L822 0L783 0L783 0L743 0L743 0L704 0L704 0L665 0L665 0L626 0L626 0L587 0L587 0L548 0L548 0L509 0L509 0L470 0L470 0L430 0L430 0L391 0L391 0L352 0L352 0L313 0L313 0L274 0L274 0L235 0L235 0L196 0L196 0L157 0L157 0L117 0L117 0L78 0L78 0L39 0L39 0L0 0Z" fill="#2e3035"></path><path d="M0 157L39 157L39 85L78 85L78 43L117 43L117 151L157 151L157 73L196 73L196 181L235 181L235 181L274 181L274 181L313 181L313 139L352 139L352 91L391 91L391 181L430 181L430 73L470 73L470 73L509 73L509 199L548 199L548 193L587 193L587 205L626 205L626 103L665 103L665 175L704 175L704 175L743 175L743 223L783 223L783 73L822 73L822 235L861 235L861 199L900 199L900 79L900 35L900 83L861 83L861 143L822 143L822 0L783 0L783 167L743 167L743 53L704 53L704 83L665 83L665 41L626 41L626 89L587 89L587 65L548 65L548 149L509 149L509 65L470 65L470 47L430 47L430 155L391 155L391 47L352 47L352 83L313 83L313 155L274 155L274 137L235 137L235 83L196 83L196 17L157 17L157 131L117 131L117 23L78 23L78 65L39 65L39 83L0 83Z" fill="#2f3749"></path><path d="M0 223L39 223L39 85L78 85L78 103L117 103L117 181L157 181L157 139L196 139L196 199L235 199L235 181L274 181L274 199L313 199L313 199L352 199L352 97L391 97L391 187L430 187L430 115L470 115L470 109L509 109L509 211L548 211L548 211L587 211L587 271L626 271L626 103L665 103L665 181L704 181L704 187L743 187L743 247L783 247L783 103L822 103L822 289L861 289L861 205L900 205L900 145L900 77L900 197L861 197L861 233L822 233L822 71L783 71L783 221L743 221L743 173L704 173L704 173L665 173L665 101L626 101L626 203L587 203L587 191L548 191L548 197L509 197L509 71L470 71L470 71L430 71L430 179L391 179L391 89L352 89L352 137L313 137L313 179L274 179L274 179L235 179L235 179L196 179L196 71L157 71L157 149L117 149L117 41L78 41L78 83L39 83L39 155L0 155Z" fill="#303e5e"></path><path d="M0 337L39 337L39 247L78 247L78 343L117 343L117 265L157 265L157 355L196 355L196 241L235 241L235 355L274 355L274 217L313 217L313 313L352 313L352 295L391 295L391 265L430 265L430 319L470 319L470 139L509 139L509 223L548 223L548 379L587 379L587 421L626 421L626 163L665 163L665 379L704 379L704 295L743 295L743 343L783 343L783 301L822 301L822 385L861 385L861 265L900 265L900 217L900 143L900 203L861 203L861 287L822 287L822 101L783 101L783 245L743 245L743 185L704 185L704 179L665 179L665 101L626 101L626 269L587 269L587 209L548 209L548 209L509 209L509 107L470 107L470 113L430 113L430 185L391 185L391 95L352 95L352 197L313 197L313 197L274 197L274 179L235 179L235 197L196 197L196 137L157 137L157 179L117 179L117 101L78 101L78 83L39 83L39 221L0 221Z" fill="#304573"></path><path d="M0 385L39 385L39 253L78 253L78 349L117 349L117 337L157 337L157 379L196 379L196 289L235 289L235 385L274 385L274 265L313 265L313 343L352 343L352 403L391 403L391 289L430 289L430 421L470 421L470 229L509 229L509 241L548 241L548 403L587 403L587 433L626 433L626 235L665 235L665 469L704 469L704 379L743 379L743 367L783 367L783 325L822 325L822 409L861 409L861 337L900 337L900 253L900 215L900 263L861 263L861 383L822 383L822 299L783 299L783 341L743 341L743 293L704 293L704 377L665 377L665 161L626 161L626 419L587 419L587 377L548 377L548 221L509 221L509 137L470 137L470 317L430 317L430 263L391 263L391 293L352 293L352 311L313 311L313 215L274 215L274 353L235 353L235 239L196 239L196 353L157 353L157 263L117 263L117 341L78 341L78 245L39 245L39 335L0 335Z" fill="#314b88"></path><path d="M0 397L39 397L39 295L78 295L78 421L117 421L117 379L157 379L157 403L196 403L196 289L235 289L235 463L274 463L274 325L313 325L313 385L352 385L352 451L391 451L391 295L430 295L430 463L470 463L470 289L509 289L509 301L548 301L548 403L587 403L587 493L626 493L626 277L665 277L665 529L704 529L704 403L743 403L743 385L783 385L783 385L822 385L822 469L861 469L861 379L900 379L900 283L900 251L900 335L861 335L861 407L822 407L822 323L783 323L783 365L743 365L743 377L704 377L704 467L665 467L665 233L626 233L626 431L587 431L587 401L548 401L548 239L509 239L509 227L470 227L470 419L430 419L430 287L391 287L391 401L352 401L352 341L313 341L313 263L274 263L274 383L235 383L235 287L196 287L196 377L157 377L157 335L117 335L117 347L78 347L78 251L39 251L39 383L0 383Z" fill="#33519e"></path><path d="M0 445L39 445L39 343L78 343L78 451L117 451L117 385L157 385L157 451L196 451L196 313L235 313L235 505L274 505L274 355L313 355L313 445L352 445L352 463L391 463L391 349L430 349L430 463L470 463L470 337L509 337L509 343L548 343L548 409L587 409L587 499L626 499L626 307L665 307L665 541L704 541L704 403L743 403L743 403L783 403L783 427L822 427L822 469L861 469L861 409L900 409L900 301L900 281L900 377L861 377L861 467L822 467L822 383L783 383L783 383L743 383L743 401L704 401L704 527L665 527L665 275L626 275L626 491L587 491L587 401L548 401L548 299L509 299L509 287L470 287L470 461L430 461L430 293L391 293L391 449L352 449L352 383L313 383L313 323L274 323L274 461L235 461L235 287L196 287L196 401L157 401L157 377L117 377L117 419L78 419L78 293L39 293L39 395L0 395Z" fill="#3857b3"></path><path d="M0 475L39 475L39 421L78 421L78 487L117 487L117 445L157 445L157 511L196 511L196 373L235 373L235 553L274 553L274 421L313 421L313 451L352 451L352 469L391 469L391 367L430 367L430 487L470 487L470 367L509 367L509 409L548 409L548 475L587 475L587 535L626 535L626 343L665 343L665 553L704 553L704 457L743 457L743 415L783 415L783 493L822 493L822 481L861 481L861 433L900 433L900 355L900 299L900 407L861 407L861 467L822 467L822 425L783 425L783 401L743 401L743 401L704 401L704 539L665 539L665 305L626 305L626 497L587 497L587 407L548 407L548 341L509 341L509 335L470 335L470 461L430 461L430 347L391 347L391 461L352 461L352 443L313 443L313 353L274 353L274 503L235 503L235 311L196 311L196 449L157 449L157 383L117 383L117 449L78 449L78 341L39 341L39 443L0 443Z" fill="#405cc8"></path><path d="M0 553L39 553L39 595L78 595L78 583L117 583L117 601L157 601L157 583L196 583L196 541L235 541L235 583L274 583L274 583L313 583L313 541L352 541L352 547L391 547L391 553L430 553L430 565L470 565L470 601L509 601L509 571L548 571L548 589L587 589L587 559L626 559L626 541L665 541L665 595L704 595L704 577L743 577L743 577L783 577L783 541L822 541L822 577L861 577L861 547L900 547L900 595L900 353L900 431L861 431L861 479L822 479L822 491L783 491L783 413L743 413L743 455L704 455L704 551L665 551L665 341L626 341L626 533L587 533L587 473L548 473L548 407L509 407L509 365L470 365L470 485L430 485L430 365L391 365L391 467L352 467L352 449L313 449L313 419L274 419L274 551L235 551L235 371L196 371L196 509L157 509L157 443L117 443L117 485L78 485L78 419L39 419L39 473L0 473Z" fill="#4a61dd"></path><path d="M0 601L39 601L39 601L78 601L78 601L117 601L117 601L157 601L157 601L196 601L196 601L235 601L235 601L274 601L274 601L313 601L313 601L352 601L352 601L391 601L391 601L430 601L430 601L470 601L470 601L509 601L509 601L548 601L548 601L587 601L587 601L626 601L626 601L665 601L665 601L704 601L704 601L743 601L743 601L783 601L783 601L822 601L822 601L861 601L861 601L900 601L900 601L900 593L900 545L861 545L861 575L822 575L822 539L783 539L783 575L743 575L743 575L704 575L704 593L665 593L665 539L626 539L626 557L587 557L587 587L548 587L548 569L509 569L509 599L470 599L470 563L430 563L430 551L391 551L391 545L352 545L352 539L313 539L313 581L274 581L274 581L235 581L235 539L196 539L196 581L157 581L157 599L117 599L117 581L78 581L78 593L39 593L39 551L0 551Z" fill="#5865f2"></path></svg>