<svg id="visual" viewBox="0 0 900 600" width="900" height="600" xmlns="http://www.w3.org/2000/svg" xmlns:xlink="http://www.w3.org/1999/xlink" version="1.1"><path d="M0 115L30 113C60 111 120 107 180 106C240 105 300 107 360 107C420 107 480 105 540 117C600 129 660 155 720 156C780 157 840 133 870 121L900 109L900 0L870 0C840 0 780 0 720 0C660 0 600 0 540 0C480 0 420 0 360 0C300 0 240 0 180 0C120 0 60 0 30 0L0 0Z" fill="#2e3035"></path><path d="M0 175L30 176C60 177 120 179 180 179C240 179 300 177 360 178C420 179 480 183 540 191C600 199 660 211 720 205C780 199 840 175 870 163L900 151L900 107L870 119C840 131 780 155 720 154C660 153 600 127 540 115C480 103 420 105 360 105C300 105 240 103 180 104C120 105 60 109 30 111L0 113Z" fill="#304677"></path><path d="M0 283L30 290C60 297 120 311 180 319C240 327 300 329 360 336C420 343 480 355 540 355C600 355 660 343 720 335C780 327 840 323 870 321L900 319L900 149L870 161C840 173 780 197 720 203C660 209 600 197 540 189C480 181 420 177 360 176C300 175 240 177 180 177C120 177 60 175 30 174L0 173Z" fill="#3b59bc"></path><path d="M0 349L30 353C60 357 120 365 180 368C240 371 300 369 360 371C420 373 480 379 540 383C600 387 660 389 720 381C780 373 840 355 870 346L900 337L900 317L870 319C840 321 780 325 720 333C660 341 600 353 540 353C480 353 420 341 360 334C300 327 240 325 180 317C120 309 60 295 30 288L0 281Z" fill="#5865f2"></path><path d="M0 403L30 400C60 397 120 391 180 392C240 393 300 401 360 404C420 407 480 405 540 404C600 403 660 403 720 394C780 385 840 367 870 358L900 349L900 335L870 344C840 353 780 371 720 379C660 387 600 385 540 381C480 377 420 371 360 369C300 367 240 369 180 366C120 363 60 355 30 351L0 347Z" fill="#5865f2"></path><path d="M0 451L30 446C60 441 120 431 180 436C240 441 300 461 360 472C420 483 480 485 540 477C600 469 660 451 720 438C780 425 840 417 870 413L900 409L900 347L870 356C840 365 780 383 720 392C660 401 600 401 540 402C480 403 420 405 360 402C300 399 240 391 180 390C120 389 60 395 30 398L0 401Z" fill="#3b59bc"></path><path d="M0 499L30 498C60 497 120 495 180 499C240 503 300 513 360 524C420 535 480 547 540 536C600 525 660 491 720 474C780 457 840 457 870 457L900 457L900 407L870 411C840 415 780 423 720 436C660 449 600 467 540 475C480 483 420 481 360 470C300 459 240 439 180 434C120 429 60 439 30 444L0 449Z" fill="#304677"></path><path d="M0 601L30 601C60 601 120 601 180 601C240 601 300 601 360 601C420 601 480 601 540 601C600 601 660 601 720 601C780 601 840 601 870 601L900 601L900 455L870 455C840 455 780 455 720 472C660 489 600 523 540 534C480 545 420 533 360 522C300 511 240 501 180 497C120 493 60 495 30 496L0 497Z" fill="#2e3035"></path></svg>