<svg id="visual" viewBox="0 0 900 450" width="900" height="450" xmlns="http://www.w3.org/2000/svg" xmlns:xlink="http://www.w3.org/1999/xlink" version="1.1"><path d="M0 249L75 208.5C150 168 300 87 450 67.5C600 48 750 90 825 111L900 132L900 0L825 0C750 0 600 0 450 0C300 0 150 0 75 0L0 0Z" fill="#2e3035"></path><path d="M0 253L75 220.8C150 188.7 300 124.3 450 119.8C600 115.3 750 170.7 825 198.3L900 226L900 130L825 109C750 88 600 46 450 65.5C300 85 150 166 75 206.5L0 247Z" fill="#3d517a"></path><path d="M0 330L75 297.7C150 265.3 300 200.7 450 187.2C600 173.7 750 211.3 825 230.2L900 249L900 224L825 196.3C750 168.7 600 113.3 450 117.8C300 122.3 150 186.7 75 218.8L0 251Z" fill="#4d73c6"></path><path d="M0 366L75 338.2C150 310.3 300 254.7 450 241.8C600 229 750 259 825 274L900 289L900 247L825 228.2C750 209.3 600 171.7 450 185.2C300 198.7 150 263.3 75 295.7L0 328Z" fill="#5681e6"></path><path d="M0 370L75 343C150 316 300 262 450 257.5C600 253 750 298 825 320.5L900 343L900 287L825 272C750 257 600 227 450 239.8C300 252.7 150 308.3 75 336.2L0 364Z" fill="#4d73c6"></path><path d="M0 447L75 413.2C150 379.3 300 311.7 450 304.2C600 296.7 750 349.3 825 375.7L900 402L900 341L825 318.5C750 296 600 251 450 255.5C300 260 150 314 75 341L0 368Z" fill="#3d517a"></path><path d="M0 451L75 451C150 451 300 451 450 451C600 451 750 451 825 451L900 451L900 400L825 373.7C750 347.3 600 294.7 450 302.2C300 309.7 150 377.3 75 411.2L0 445Z" fill="#2e3035"></path></svg>