<svg id="visual" viewBox="0 0 900 900" width="900" height="900" xmlns="http://www.w3.org/2000/svg" xmlns:xlink="http://www.w3.org/1999/xlink" version="1.1"><path d="M0 73L75 71.5C150 70 300 67 450 61C600 55 750 46 825 41.5L900 37L900 0L825 0C750 0 600 0 450 0C300 0 150 0 75 0L0 0Z" fill="#5865f2"></path><path d="M0 109L75 103C150 97 300 85 450 79C600 73 750 73 825 73L900 73L900 35L825 39.5C750 44 600 53 450 59C300 65 150 68 75 69.5L0 71Z" fill="#3f5cc7"></path><path d="M0 298L75 280C150 262 300 226 450 208C600 190 750 190 825 190L900 190L900 71L825 71C750 71 600 71 450 77C300 83 150 95 75 101L0 107Z" fill="#33519c"></path><path d="M0 325L75 305.5C150 286 300 247 450 229C600 211 750 214 825 215.5L900 217L900 188L825 188C750 188 600 188 450 206C300 224 150 260 75 278L0 296Z" fill="#304470"></path><path d="M0 379L75 361C150 343 300 307 450 283C600 259 750 247 825 241L900 235L900 215L825 213.5C750 212 600 209 450 227C300 245 150 284 75 303.5L0 323Z" fill="#2f3645"></path><path d="M0 523L75 494.5C150 466 300 409 450 382C600 355 750 358 825 359.5L900 361L900 233L825 239C750 245 600 257 450 281C300 305 150 341 75 359L0 377Z" fill="#2e3035"></path><path d="M0 550L75 527.5C150 505 300 460 450 443.5C600 427 750 439 825 445L900 451L900 359L825 357.5C750 356 600 353 450 380C300 407 150 464 75 492.5L0 521Z" fill="#2e3035"></path><path d="M0 631L75 598C150 565 300 499 450 482.5C600 466 750 499 825 515.5L900 532L900 449L825 443C750 437 600 425 450 441.5C300 458 150 503 75 525.5L0 548Z" fill="#2f3645"></path><path d="M0 721L75 715C150 709 300 697 450 679C600 661 750 637 825 625L900 613L900 530L825 513.5C750 497 600 464 450 480.5C300 497 150 563 75 596L0 629Z" fill="#304470"></path><path d="M0 766L75 754C150 742 300 718 450 698.5C600 679 750 664 825 656.5L900 649L900 611L825 623C750 635 600 659 450 677C300 695 150 707 75 713L0 719Z" fill="#33519c"></path><path d="M0 901L75 890.5C150 880 300 859 450 845.5C600 832 750 826 825 823L900 820L900 647L825 654.5C750 662 600 677 450 696.5C300 716 150 740 75 752L0 764Z" fill="#3f5cc7"></path><path d="M0 901L75 901C150 901 300 901 450 901C600 901 750 901 825 901L900 901L900 818L825 821C750 824 600 830 450 843.5C300 857 150 878 75 888.5L0 899Z" fill="#5865f2"></path></svg>