<svg id="visual" viewBox="0 0 900 200" width="900" height="200" xmlns="http://www.w3.org/2000/svg" xmlns:xlink="http://www.w3.org/1999/xlink" version="1.1"><rect x="0" y="0" width="900" height="200" fill="#2E3035"></rect><path d="M0 95L18.8 90C37.7 85 75.3 75 112.8 72.2C150.3 69.3 187.7 73.7 225.2 75.2C262.7 76.7 300.3 75.3 337.8 74.3C375.3 73.3 412.7 72.7 450.2 70.7C487.7 68.7 525.3 65.3 562.8 69C600.3 72.7 637.7 83.3 675.2 83.2C712.7 83 750.3 72 787.8 65.7C825.3 59.3 862.7 57.7 881.3 56.8L900 56L900 201L881.3 201C862.7 201 825.3 201 787.8 201C750.3 201 712.7 201 675.2 201C637.7 201 600.3 201 562.8 201C525.3 201 487.7 201 450.2 201C412.7 201 375.3 201 337.8 201C300.3 201 262.7 201 225.2 201C187.7 201 150.3 201 112.8 201C75.3 201 37.7 201 18.8 201L0 201Z" fill="#2e3035"></path><path d="M0 105L18.8 99.7C37.7 94.3 75.3 83.7 112.8 81.2C150.3 78.7 187.7 84.3 225.2 85C262.7 85.7 300.3 81.3 337.8 77.7C375.3 74 412.7 71 450.2 75C487.7 79 525.3 90 562.8 91.5C600.3 93 637.7 85 675.2 84.2C712.7 83.3 750.3 89.7 787.8 87.5C825.3 85.3 862.7 74.7 881.3 69.3L900 64L900 201L881.3 201C862.7 201 825.3 201 787.8 201C750.3 201 712.7 201 675.2 201C637.7 201 600.3 201 562.8 201C525.3 201 487.7 201 450.2 201C412.7 201 375.3 201 337.8 201C300.3 201 262.7 201 225.2 201C187.7 201 150.3 201 112.8 201C75.3 201 37.7 201 18.8 201L0 201Z" fill="#404246"></path><path d="M0 95L18.8 93.8C37.7 92.7 75.3 90.3 112.8 89.2C150.3 88 187.7 88 225.2 89.5C262.7 91 300.3 94 337.8 92.5C375.3 91 412.7 85 450.2 87.5C487.7 90 525.3 101 562.8 103C600.3 105 637.7 98 675.2 94C712.7 90 750.3 89 787.8 87.5C825.3 86 862.7 84 881.3 83L900 82L900 201L881.3 201C862.7 201 825.3 201 787.8 201C750.3 201 712.7 201 675.2 201C637.7 201 600.3 201 562.8 201C525.3 201 487.7 201 450.2 201C412.7 201 375.3 201 337.8 201C300.3 201 262.7 201 225.2 201C187.7 201 150.3 201 112.8 201C75.3 201 37.7 201 18.8 201L0 201Z" fill="#535459"></path><path d="M0 119L18.8 116.7C37.7 114.3 75.3 109.7 112.8 107.2C150.3 104.7 187.7 104.3 225.2 106.8C262.7 109.3 300.3 114.7 337.8 115.5C375.3 116.3 412.7 112.7 450.2 113.2C487.7 113.7 525.3 118.3 562.8 120C600.3 121.7 637.7 120.3 675.2 116.3C712.7 112.3 750.3 105.7 787.8 101.8C825.3 98 862.7 97 881.3 96.5L900 96L900 201L881.3 201C862.7 201 825.3 201 787.8 201C750.3 201 712.7 201 675.2 201C637.7 201 600.3 201 562.8 201C525.3 201 487.7 201 450.2 201C412.7 201 375.3 201 337.8 201C300.3 201 262.7 201 225.2 201C187.7 201 150.3 201 112.8 201C75.3 201 37.7 201 18.8 201L0 201Z" fill="#66686c"></path><path d="M0 122L18.8 123.3C37.7 124.7 75.3 127.3 112.8 124C150.3 120.7 187.7 111.3 225.2 111C262.7 110.7 300.3 119.3 337.8 120.5C375.3 121.7 412.7 115.3 450.2 111C487.7 106.7 525.3 104.3 562.8 107.3C600.3 110.3 637.7 118.7 675.2 121.5C712.7 124.3 750.3 121.7 787.8 122C825.3 122.3 862.7 125.7 881.3 127.3L900 129L900 201L881.3 201C862.7 201 825.3 201 787.8 201C750.3 201 712.7 201 675.2 201C637.7 201 600.3 201 562.8 201C525.3 201 487.7 201 450.2 201C412.7 201 375.3 201 337.8 201C300.3 201 262.7 201 225.2 201C187.7 201 150.3 201 112.8 201C75.3 201 37.7 201 18.8 201L0 201Z" fill="#7a7b7f"></path><path d="M0 120L18.8 120.7C37.7 121.3 75.3 122.7 112.8 124C150.3 125.3 187.7 126.7 225.2 125.3C262.7 124 300.3 120 337.8 121.8C375.3 123.7 412.7 131.3 450.2 132.2C487.7 133 525.3 127 562.8 125.7C600.3 124.3 637.7 127.7 675.2 128.2C712.7 128.7 750.3 126.3 787.8 123.7C825.3 121 862.7 118 881.3 116.5L900 115L900 201L881.3 201C862.7 201 825.3 201 787.8 201C750.3 201 712.7 201 675.2 201C637.7 201 600.3 201 562.8 201C525.3 201 487.7 201 450.2 201C412.7 201 375.3 201 337.8 201C300.3 201 262.7 201 225.2 201C187.7 201 150.3 201 112.8 201C75.3 201 37.7 201 18.8 201L0 201Z" fill="#8f9093"></path><path d="M0 138L18.8 136.7C37.7 135.3 75.3 132.7 112.8 134.3C150.3 136 187.7 142 225.2 143.2C262.7 144.3 300.3 140.7 337.8 137.8C375.3 135 412.7 133 450.2 135.2C487.7 137.3 525.3 143.7 562.8 146.7C600.3 149.7 637.7 149.3 675.2 148.7C712.7 148 750.3 147 787.8 145.7C825.3 144.3 862.7 142.7 881.3 141.8L900 141L900 201L881.3 201C862.7 201 825.3 201 787.8 201C750.3 201 712.7 201 675.2 201C637.7 201 600.3 201 562.8 201C525.3 201 487.7 201 450.2 201C412.7 201 375.3 201 337.8 201C300.3 201 262.7 201 225.2 201C187.7 201 150.3 201 112.8 201C75.3 201 37.7 201 18.8 201L0 201Z" fill="#a4a5a8"></path><path d="M0 150L18.8 149.3C37.7 148.7 75.3 147.3 112.8 149C150.3 150.7 187.7 155.3 225.2 156.3C262.7 157.3 300.3 154.7 337.8 151.7C375.3 148.7 412.7 145.3 450.2 144.5C487.7 143.7 525.3 145.3 562.8 145C600.3 144.7 637.7 142.3 675.2 142.2C712.7 142 750.3 144 787.8 146.3C825.3 148.7 862.7 151.3 881.3 152.7L900 154L900 201L881.3 201C862.7 201 825.3 201 787.8 201C750.3 201 712.7 201 675.2 201C637.7 201 600.3 201 562.8 201C525.3 201 487.7 201 450.2 201C412.7 201 375.3 201 337.8 201C300.3 201 262.7 201 225.2 201C187.7 201 150.3 201 112.8 201C75.3 201 37.7 201 18.8 201L0 201Z" fill="#babbbd"></path><path d="M0 160L18.8 158.7C37.7 157.3 75.3 154.7 112.8 153.8C150.3 153 187.7 154 225.2 156.8C262.7 159.7 300.3 164.3 337.8 165.3C375.3 166.3 412.7 163.7 450.2 161.5C487.7 159.3 525.3 157.7 562.8 158C600.3 158.3 637.7 160.7 675.2 160.8C712.7 161 750.3 159 787.8 159.8C825.3 160.7 862.7 164.3 881.3 166.2L900 168L900 201L881.3 201C862.7 201 825.3 201 787.8 201C750.3 201 712.7 201 675.2 201C637.7 201 600.3 201 562.8 201C525.3 201 487.7 201 450.2 201C412.7 201 375.3 201 337.8 201C300.3 201 262.7 201 225.2 201C187.7 201 150.3 201 112.8 201C75.3 201 37.7 201 18.8 201L0 201Z" fill="#d1d1d2"></path><path d="M0 171L18.8 171C37.7 171 75.3 171 112.8 171.3C150.3 171.7 187.7 172.3 225.2 173.3C262.7 174.3 300.3 175.7 337.8 175.3C375.3 175 412.7 173 450.2 171.7C487.7 170.3 525.3 169.7 562.8 168.7C600.3 167.7 637.7 166.3 675.2 167.5C712.7 168.7 750.3 172.3 787.8 172.8C825.3 173.3 862.7 170.7 881.3 169.3L900 168L900 201L881.3 201C862.7 201 825.3 201 787.8 201C750.3 201 712.7 201 675.2 201C637.7 201 600.3 201 562.8 201C525.3 201 487.7 201 450.2 201C412.7 201 375.3 201 337.8 201C300.3 201 262.7 201 225.2 201C187.7 201 150.3 201 112.8 201C75.3 201 37.7 201 18.8 201L0 201Z" fill="#e8e8e9"></path><path d="M0 185L18.8 185.2C37.7 185.3 75.3 185.7 112.8 185.5C150.3 185.3 187.7 184.7 225.2 184.2C262.7 183.7 300.3 183.3 337.8 183.8C375.3 184.3 412.7 185.7 450.2 186.3C487.7 187 525.3 187 562.8 186.8C600.3 186.7 637.7 186.3 675.2 186C712.7 185.7 750.3 185.3 787.8 185.2C825.3 185 862.7 185 881.3 185L900 185L900 201L881.3 201C862.7 201 825.3 201 787.8 201C750.3 201 712.7 201 675.2 201C637.7 201 600.3 201 562.8 201C525.3 201 487.7 201 450.2 201C412.7 201 375.3 201 337.8 201C300.3 201 262.7 201 225.2 201C187.7 201 150.3 201 112.8 201C75.3 201 37.7 201 18.8 201L0 201Z" fill="#ffffff"></path></svg>