<svg id="visual" viewBox="0 0 900 200" width="900" height="200" xmlns="http://www.w3.org/2000/svg" xmlns:xlink="http://www.w3.org/1999/xlink" version="1.1"><rect x="0" y="0" width="900" height="200" fill="#ffffff"></rect><path d="M0 100L180 104L360 142L540 120L720 98L900 113L900 0L720 0L540 0L360 0L180 0L0 0Z" fill="#b1c7ff"></path><path d="M0 122L180 107L360 115L540 72L720 84L900 108L900 0L720 0L540 0L360 0L180 0L0 0Z" fill="#8ea8fe"></path><path d="M0 82L180 77L360 65L540 81L720 89L900 45L900 0L720 0L540 0L360 0L180 0L0 0Z" fill="#6f88fa"></path><path d="M0 46L180 51L360 56L540 32L720 44L900 35L900 0L720 0L540 0L360 0L180 0L0 0Z" fill="#5865f2"></path></svg>