<svg id="visual" viewBox="0 0 960 150" width="960" height="150" xmlns="http://www.w3.org/2000/svg" xmlns:xlink="http://www.w3.org/1999/xlink" version="1.1"><rect x="0" y="0" width="960" height="150" fill="#2E3035"></rect><path d="M0 77L137 113L274 80L411 82L549 81L686 70L823 104L960 103L960 0L823 0L686 0L549 0L411 0L274 0L137 0L0 0Z" fill="#3d4046"></path><path d="M0 78L137 86L274 61L411 66L549 84L686 65L823 60L960 68L960 0L823 0L686 0L549 0L411 0L274 0L137 0L0 0Z" fill="#787b7f"></path><path d="M0 37L137 54L274 53L411 47L549 43L686 48L823 41L960 61L960 0L823 0L686 0L549 0L411 0L274 0L137 0L0 0Z" fill="#b9bbbd"></path><path d="M0 25L137 21L274 21L411 34L549 37L686 18L823 33L960 22L960 0L823 0L686 0L549 0L411 0L274 0L137 0L0 0Z" fill="#ffffff"></path></svg>