<svg id="visual" viewBox="0 0 960 150" width="960" height="150" xmlns="http://www.w3.org/2000/svg" xmlns:xlink="http://www.w3.org/1999/xlink" version="1.1"><rect x="0" y="0" width="960" height="150" fill="#ffffff"></rect><path d="M0 105L137 77L274 103L411 86L549 106L686 91L823 111L960 82L960 0L823 0L686 0L549 0L411 0L274 0L137 0L0 0Z" fill="#dfe2ff"></path><path d="M0 75L137 64L274 71L411 80L549 75L686 85L823 83L960 54L960 0L823 0L686 0L549 0L411 0L274 0L137 0L0 0Z" fill="#9ea2b7"></path><path d="M0 64L137 42L274 51L411 39L549 54L686 36L823 43L960 37L960 0L823 0L686 0L549 0L411 0L274 0L137 0L0 0Z" fill="#636773"></path><path d="M0 18L137 19L274 33L411 25L549 24L686 30L823 32L960 40L960 0L823 0L686 0L549 0L411 0L274 0L137 0L0 0Z" fill="#2e3035"></path></svg>