<svg id="visual" viewBox="0 0 900 900" width="900" height="900" xmlns="http://www.w3.org/2000/svg" xmlns:xlink="http://www.w3.org/1999/xlink" version="1.1"><rect x="0" y="0" width="900" height="900" fill="#001220"></rect><defs><linearGradient id="grad1_0" x1="0%" y1="0%" x2="100%" y2="100%"><stop offset="30%" stop-color="#95ff00" stop-opacity="1"></stop><stop offset="70%" stop-color="#95ff00" stop-opacity="1"></stop></linearGradient></defs><defs><linearGradient id="grad1_1" x1="0%" y1="0%" x2="100%" y2="100%"><stop offset="30%" stop-color="#95ff00" stop-opacity="1"></stop><stop offset="70%" stop-color="#00e157" stop-opacity="1"></stop></linearGradient></defs><defs><linearGradient id="grad1_2" x1="0%" y1="0%" x2="100%" y2="100%"><stop offset="30%" stop-color="#00bf79" stop-opacity="1"></stop><stop offset="70%" stop-color="#00e157" stop-opacity="1"></stop></linearGradient></defs><defs><linearGradient id="grad1_3" x1="0%" y1="0%" x2="100%" y2="100%"><stop offset="30%" stop-color="#00bf79" stop-opacity="1"></stop><stop offset="70%" stop-color="#009a88" stop-opacity="1"></stop></linearGradient></defs><defs><linearGradient id="grad1_4" x1="0%" y1="0%" x2="100%" y2="100%"><stop offset="30%" stop-color="#007684" stop-opacity="1"></stop><stop offset="70%" stop-color="#009a88" stop-opacity="1"></stop></linearGradient></defs><defs><linearGradient id="grad1_5" x1="0%" y1="0%" x2="100%" y2="100%"><stop offset="30%" stop-color="#007684" stop-opacity="1"></stop><stop offset="70%" stop-color="#00526e" stop-opacity="1"></stop></linearGradient></defs><defs><linearGradient id="grad1_6" x1="0%" y1="0%" x2="100%" y2="100%"><stop offset="30%" stop-color="#00304a" stop-opacity="1"></stop><stop offset="70%" stop-color="#00526e" stop-opacity="1"></stop></linearGradient></defs><defs><linearGradient id="grad1_7" x1="0%" y1="0%" x2="100%" y2="100%"><stop offset="30%" stop-color="#00304a" stop-opacity="1"></stop><stop offset="70%" stop-color="#001220" stop-opacity="1"></stop></linearGradient></defs><defs><linearGradient id="grad2_0" x1="0%" y1="0%" x2="100%" y2="100%"><stop offset="30%" stop-color="#95ff00" stop-opacity="1"></stop><stop offset="70%" stop-color="#95ff00" stop-opacity="1"></stop></linearGradient></defs><defs><linearGradient id="grad2_1" x1="0%" y1="0%" x2="100%" y2="100%"><stop offset="30%" stop-color="#00e157" stop-opacity="1"></stop><stop offset="70%" stop-color="#95ff00" stop-opacity="1"></stop></linearGradient></defs><defs><linearGradient id="grad2_2" x1="0%" y1="0%" x2="100%" y2="100%"><stop offset="30%" stop-color="#00e157" stop-opacity="1"></stop><stop offset="70%" stop-color="#00bf79" stop-opacity="1"></stop></linearGradient></defs><defs><linearGradient id="grad2_3" x1="0%" y1="0%" x2="100%" y2="100%"><stop offset="30%" stop-color="#009a88" stop-opacity="1"></stop><stop offset="70%" stop-color="#00bf79" stop-opacity="1"></stop></linearGradient></defs><defs><linearGradient id="grad2_4" x1="0%" y1="0%" x2="100%" y2="100%"><stop offset="30%" stop-color="#009a88" stop-opacity="1"></stop><stop offset="70%" stop-color="#007684" stop-opacity="1"></stop></linearGradient></defs><defs><linearGradient id="grad2_5" x1="0%" y1="0%" x2="100%" y2="100%"><stop offset="30%" stop-color="#00526e" stop-opacity="1"></stop><stop offset="70%" stop-color="#007684" stop-opacity="1"></stop></linearGradient></defs><defs><linearGradient id="grad2_6" x1="0%" y1="0%" x2="100%" y2="100%"><stop offset="30%" stop-color="#00526e" stop-opacity="1"></stop><stop offset="70%" stop-color="#00304a" stop-opacity="1"></stop></linearGradient></defs><defs><linearGradient id="grad2_7" x1="0%" y1="0%" x2="100%" y2="100%"><stop offset="30%" stop-color="#001220" stop-opacity="1"></stop><stop offset="70%" stop-color="#00304a" stop-opacity="1"></stop></linearGradient></defs><g transform="translate(900, 0)"><path d="M0 636.4C-106.8 613 -213.6 589.6 -311.5 539.5C-409.4 489.4 -498.5 412.6 -551.1 318.2C-603.8 223.8 -620.1 111.9 -636.4 0L0 0Z" fill="#002135"></path><path d="M0 556.8C-93.4 536.4 -186.9 515.9 -272.6 472.1C-358.2 428.2 -436.2 361 -482.2 278.4C-528.3 195.8 -542.6 97.9 -556.8 0L0 0Z" fill="#00415d"></path><path d="M0 477.3C-80.1 459.8 -160.2 442.2 -233.6 404.7C-307.1 367.1 -373.8 309.4 -413.4 238.6C-452.9 167.9 -465.1 83.9 -477.3 0L0 0Z" fill="#00647b"></path><path d="M0 397.7C-66.7 383.1 -133.5 368.5 -194.7 337.2C-255.9 305.9 -311.5 257.9 -344.5 198.9C-377.4 139.9 -387.6 69.9 -397.7 0L0 0Z" fill="#008888"></path><path d="M0 318.2C-53.4 306.5 -106.8 294.8 -155.7 269.8C-204.7 244.7 -249.2 206.3 -275.6 159.1C-301.9 111.9 -310.1 56 -318.2 0L0 0Z" fill="#00ad83"></path><path d="M0 238.6C-40 229.9 -80.1 221.1 -116.8 202.3C-153.5 183.5 -186.9 154.7 -206.7 119.3C-226.4 83.9 -232.5 42 -238.6 0L0 0Z" fill="#00d06a"></path><path d="M0 159.1C-26.7 153.3 -53.4 147.4 -77.9 134.9C-102.4 122.4 -124.6 103.1 -137.8 79.5C-151 56 -155 28 -159.1 0L0 0Z" fill="#5af13c"></path><path d="M0 79.5C-13.3 76.6 -26.7 73.7 -38.9 67.4C-51.2 61.2 -62.3 51.6 -68.9 39.8C-75.5 28 -77.5 14 -79.5 0L0 0Z" fill="#95ff00"></path></g><g transform="translate(0, 900)"><path d="M0 -636.4C111.1 -619.6 222.2 -602.9 318.2 -551.1C414.2 -499.4 495.1 -412.7 545.6 -315C596.1 -217.3 616.3 -108.7 636.4 0L0 0Z" fill="#002135"></path><path d="M0 -556.8C97.2 -542.2 194.4 -527.5 278.4 -482.2C362.4 -437 433.2 -361.1 477.4 -275.6C521.6 -190.2 539.2 -95.1 556.8 0L0 0Z" fill="#00415d"></path><path d="M0 -477.3C83.3 -464.7 166.7 -452.2 238.6 -413.4C310.6 -374.5 371.3 -309.5 409.2 -236.3C447.1 -163 462.2 -81.5 477.3 0L0 0Z" fill="#00647b"></path><path d="M0 -397.7C69.4 -387.3 138.9 -376.8 198.9 -344.5C258.9 -312.1 309.4 -257.9 341 -196.9C372.6 -135.8 385.2 -67.9 397.7 0L0 0Z" fill="#008888"></path><path d="M0 -318.2C55.6 -309.8 111.1 -301.4 159.1 -275.6C207.1 -249.7 247.5 -206.3 272.8 -157.5C298.1 -108.7 308.1 -54.3 318.2 0L0 0Z" fill="#00ad83"></path><path d="M0 -238.6C41.7 -232.4 83.3 -226.1 119.3 -206.7C155.3 -187.3 185.7 -154.8 204.6 -118.1C223.5 -81.5 231.1 -40.7 238.6 0L0 0Z" fill="#00d06a"></path><path d="M0 -159.1C27.8 -154.9 55.6 -150.7 79.5 -137.8C103.5 -124.8 123.8 -103.2 136.4 -78.8C149 -54.3 154.1 -27.2 159.1 0L0 0Z" fill="#5af13c"></path><path d="M0 -79.5C13.9 -77.5 27.8 -75.4 39.8 -68.9C51.8 -62.4 61.9 -51.6 68.2 -39.4C74.5 -27.2 77 -13.6 79.5 0L0 0Z" fill="#95ff00"></path></g></svg>