<svg id="visual" viewBox="0 0 900 900" width="900" height="900" xmlns="http://www.w3.org/2000/svg" xmlns:xlink="http://www.w3.org/1999/xlink" version="1.1"><rect x="0" y="0" width="900" height="900" fill="#001220"></rect><defs><linearGradient id="grad1_0" x1="0%" y1="100%" x2="100%" y2="0%"><stop offset="30%" stop-color="#fa3c3c" stop-opacity="1"></stop><stop offset="70%" stop-color="#fa3c3c" stop-opacity="1"></stop></linearGradient></defs><defs><linearGradient id="grad1_1" x1="0%" y1="100%" x2="100%" y2="0%"><stop offset="30%" stop-color="#fa3c3c" stop-opacity="1"></stop><stop offset="70%" stop-color="#a8226f" stop-opacity="1"></stop></linearGradient></defs><defs><linearGradient id="grad1_2" x1="0%" y1="100%" x2="100%" y2="0%"><stop offset="30%" stop-color="#3c2b5f" stop-opacity="1"></stop><stop offset="70%" stop-color="#a8226f" stop-opacity="1"></stop></linearGradient></defs><defs><linearGradient id="grad1_3" x1="0%" y1="100%" x2="100%" y2="0%"><stop offset="30%" stop-color="#3c2b5f" stop-opacity="1"></stop><stop offset="70%" stop-color="#001220" stop-opacity="1"></stop></linearGradient></defs><defs><linearGradient id="grad2_0" x1="0%" y1="100%" x2="100%" y2="0%"><stop offset="30%" stop-color="#fa3c3c" stop-opacity="1"></stop><stop offset="70%" stop-color="#fa3c3c" stop-opacity="1"></stop></linearGradient></defs><defs><linearGradient id="grad2_1" x1="0%" y1="100%" x2="100%" y2="0%"><stop offset="30%" stop-color="#a8226f" stop-opacity="1"></stop><stop offset="70%" stop-color="#fa3c3c" stop-opacity="1"></stop></linearGradient></defs><defs><linearGradient id="grad2_2" x1="0%" y1="100%" x2="100%" y2="0%"><stop offset="30%" stop-color="#a8226f" stop-opacity="1"></stop><stop offset="70%" stop-color="#3c2b5f" stop-opacity="1"></stop></linearGradient></defs><defs><linearGradient id="grad2_3" x1="0%" y1="100%" x2="100%" y2="0%"><stop offset="30%" stop-color="#001220" stop-opacity="1"></stop><stop offset="70%" stop-color="#3c2b5f" stop-opacity="1"></stop></linearGradient></defs><g transform="translate(900, 900)"><path d="M-636.4 0C-637.7 -26.4 -639 -52.7 -624.4 -75.8C-609.9 -98.9 -579.5 -118.7 -562.2 -138.6C-544.9 -158.4 -540.7 -178.4 -549.8 -208.5C-558.9 -238.6 -581.2 -279 -562.3 -295.1C-543.3 -311.2 -483 -303.1 -460 -317.5C-437.1 -332 -451.6 -368.9 -450.6 -399.2C-449.6 -429.5 -433 -453 -403.8 -455.8C-374.7 -458.7 -332.9 -440.9 -311.9 -451.8C-290.8 -462.8 -290.5 -502.6 -280.7 -534.8C-270.9 -567.1 -251.6 -591.8 -225.7 -595C-199.7 -598.3 -167 -580 -139.5 -566.1C-112 -552.1 -89.8 -542.5 -67.4 -554.9C-45 -567.4 -22.5 -601.9 0 -636.4L0 0Z" fill="#112142"></path><path d="M-477.3 0C-478.3 -19.8 -479.2 -39.6 -468.3 -56.9C-457.4 -74.2 -434.6 -89 -421.6 -103.9C-408.7 -118.8 -405.5 -133.8 -412.3 -156.4C-419.2 -179 -435.9 -209.2 -421.7 -221.3C-407.5 -233.4 -362.2 -227.3 -345 -238.2C-327.9 -249 -338.7 -276.7 -338 -299.4C-337.2 -322.1 -324.8 -339.7 -302.9 -341.9C-281 -344 -249.7 -330.6 -233.9 -338.9C-218.1 -347.1 -217.9 -376.9 -210.5 -401.1C-203.2 -425.3 -188.7 -443.9 -169.3 -446.3C-149.8 -448.7 -125.3 -435 -104.6 -424.5C-84 -414.1 -67.3 -406.9 -50.5 -416.2C-33.7 -425.5 -16.9 -451.4 0 -477.3L0 0Z" fill="#712b6f"></path><path d="M-318.2 0C-318.8 -13.2 -319.5 -26.4 -312.2 -37.9C-304.9 -49.4 -289.7 -59.3 -281.1 -69.3C-272.4 -79.2 -270.3 -89.2 -274.9 -104.3C-279.4 -119.3 -290.6 -139.5 -281.1 -147.5C-271.6 -155.6 -241.5 -151.6 -230 -158.8C-218.6 -166 -225.8 -184.5 -225.3 -199.6C-224.8 -214.7 -216.5 -226.5 -201.9 -227.9C-187.3 -229.3 -166.5 -220.4 -155.9 -225.9C-145.4 -231.4 -145.2 -251.3 -140.3 -267.4C-135.4 -283.5 -125.8 -295.9 -112.8 -297.5C-99.8 -299.1 -83.5 -290 -69.8 -283C-56 -276.1 -44.9 -271.2 -33.7 -277.5C-22.5 -283.7 -11.2 -300.9 0 -318.2L0 0Z" fill="#d81e5d"></path><path d="M-159.1 0C-159.4 -6.6 -159.7 -13.2 -156.1 -19C-152.5 -24.7 -144.9 -29.7 -140.5 -34.6C-136.2 -39.6 -135.2 -44.6 -137.4 -52.1C-139.7 -59.7 -145.3 -69.7 -140.6 -73.8C-135.8 -77.8 -120.7 -75.8 -115 -79.4C-109.3 -83 -112.9 -92.2 -112.7 -99.8C-112.4 -107.4 -108.3 -113.2 -101 -114C-93.7 -114.7 -83.2 -110.2 -78 -113C-72.7 -115.7 -72.6 -125.6 -70.2 -133.7C-67.7 -141.8 -62.9 -148 -56.4 -148.8C-49.9 -149.6 -41.8 -145 -34.9 -141.5C-28 -138 -22.4 -135.6 -16.8 -138.7C-11.2 -141.8 -5.6 -150.5 0 -159.1L0 0Z" fill="#fa3c3c"></path></g><g transform="translate(0, 0)"><path d="M636.4 0C625.1 25.1 613.9 50.2 600.6 72.9C587.3 95.7 572 116.2 565.1 139.3C558.2 162.4 559.7 188.2 547.9 207.8C536.2 227.4 511.2 240.8 508.3 266.8C505.3 292.8 524.4 331.4 523.7 361.5C523.1 391.6 502.8 413.3 469.3 415.8C435.8 418.3 389.1 401.6 372 419.9C354.9 438.2 367.3 491.4 356.7 516.8C346.2 542.3 312.8 540 286.3 545.4C259.8 550.9 240.3 564.1 219.1 577.8C198 591.6 175.3 605.9 151 612.7C126.7 619.5 100.9 618.7 75.5 621.4C50 624.1 25 630.3 0 636.4L0 0Z" fill="#112142"></path><path d="M477.3 0C468.9 18.8 460.4 37.6 450.4 54.7C440.5 71.8 429 87.1 423.8 104.5C418.6 121.8 419.7 141.2 410.9 155.8C402.1 170.5 383.4 180.6 381.2 200.1C379 219.6 393.3 248.5 392.8 271.1C392.3 293.7 377.1 310 352 311.8C326.9 313.7 291.9 301.2 279 314.9C266.2 328.6 275.5 368.5 267.6 387.6C259.7 406.7 234.6 405 214.7 409.1C194.8 413.2 180.2 423.1 164.4 433.4C148.5 443.7 131.5 454.4 113.3 459.5C95 464.6 75.7 464 56.6 466.1C37.5 468.1 18.8 472.7 0 477.3L0 0Z" fill="#712b6f"></path><path d="M318.2 0C312.6 12.5 306.9 25.1 300.3 36.5C293.7 47.8 286 58.1 282.5 69.6C279.1 81.2 279.8 94.1 274 103.9C268.1 113.7 255.6 120.4 254.1 133.4C252.6 146.4 262.2 165.7 261.9 180.8C261.6 195.8 251.4 206.6 234.7 207.9C217.9 209.1 194.6 200.8 186 210C177.4 219.1 183.6 245.7 178.4 258.4C173.1 271.1 156.4 270 143.1 272.7C129.9 275.4 120.1 282 109.6 288.9C99 295.8 87.6 302.9 75.5 306.3C63.4 309.7 50.4 309.4 37.7 310.7C25 312.1 12.5 315.1 0 318.2L0 0Z" fill="#d81e5d"></path><path d="M159.1 0C156.3 6.3 153.5 12.5 150.1 18.2C146.8 23.9 143 29 141.3 34.8C139.5 40.6 139.9 47.1 137 51.9C134 56.8 127.8 60.2 127.1 66.7C126.3 73.2 131.1 82.8 130.9 90.4C130.8 97.9 125.7 103.3 117.3 103.9C109 104.6 97.3 100.4 93 105C88.7 109.5 91.8 122.8 89.2 129.2C86.6 135.6 78.2 135 71.6 136.4C64.9 137.7 60.1 141 54.8 144.5C49.5 147.9 43.8 151.5 37.8 153.2C31.7 154.9 25.2 154.7 18.9 155.4C12.5 156 6.3 157.6 0 159.1L0 0Z" fill="#fa3c3c"></path></g></svg>