<svg id="visual" viewBox="0 0 900 900" width="900" height="900" xmlns="http://www.w3.org/2000/svg" xmlns:xlink="http://www.w3.org/1999/xlink" version="1.1"><rect x="0" y="0" width="900" height="900" fill="#001220"></rect><defs><linearGradient id="grad1_0" x1="0%" y1="100%" x2="100%" y2="0%"><stop offset="30%" stop-color="#fa3c3c" stop-opacity="1"></stop><stop offset="70%" stop-color="#fa3c3c" stop-opacity="1"></stop></linearGradient></defs><defs><linearGradient id="grad1_1" x1="0%" y1="100%" x2="100%" y2="0%"><stop offset="30%" stop-color="#fa3c3c" stop-opacity="1"></stop><stop offset="70%" stop-color="#a8226f" stop-opacity="1"></stop></linearGradient></defs><defs><linearGradient id="grad1_2" x1="0%" y1="100%" x2="100%" y2="0%"><stop offset="30%" stop-color="#3c2b5f" stop-opacity="1"></stop><stop offset="70%" stop-color="#a8226f" stop-opacity="1"></stop></linearGradient></defs><defs><linearGradient id="grad1_3" x1="0%" y1="100%" x2="100%" y2="0%"><stop offset="30%" stop-color="#3c2b5f" stop-opacity="1"></stop><stop offset="70%" stop-color="#001220" stop-opacity="1"></stop></linearGradient></defs><defs><linearGradient id="grad2_0" x1="0%" y1="100%" x2="100%" y2="0%"><stop offset="30%" stop-color="#fa3c3c" stop-opacity="1"></stop><stop offset="70%" stop-color="#fa3c3c" stop-opacity="1"></stop></linearGradient></defs><defs><linearGradient id="grad2_1" x1="0%" y1="100%" x2="100%" y2="0%"><stop offset="30%" stop-color="#a8226f" stop-opacity="1"></stop><stop offset="70%" stop-color="#fa3c3c" stop-opacity="1"></stop></linearGradient></defs><defs><linearGradient id="grad2_2" x1="0%" y1="100%" x2="100%" y2="0%"><stop offset="30%" stop-color="#a8226f" stop-opacity="1"></stop><stop offset="70%" stop-color="#3c2b5f" stop-opacity="1"></stop></linearGradient></defs><defs><linearGradient id="grad2_3" x1="0%" y1="100%" x2="100%" y2="0%"><stop offset="30%" stop-color="#001220" stop-opacity="1"></stop><stop offset="70%" stop-color="#3c2b5f" stop-opacity="1"></stop></linearGradient></defs><g transform="translate(900, 900)"><path d="M-636.4 0C-620.2 -112.1 -604.1 -224.3 -551.1 -318.2C-498.2 -412.1 -408.5 -487.8 -310.5 -537.8C-212.5 -587.8 -106.3 -612.1 0 -636.4L0 0Z" fill="#112142"></path><path d="M-477.3 0C-465.2 -84.1 -453.1 -168.2 -413.4 -238.6C-373.6 -309.1 -306.4 -365.9 -232.9 -403.4C-159.4 -440.8 -79.7 -459.1 0 -477.3L0 0Z" fill="#712b6f"></path><path d="M-318.2 0C-310.1 -56.1 -302 -112.1 -275.6 -159.1C-249.1 -206.1 -204.2 -243.9 -155.3 -268.9C-106.3 -293.9 -53.1 -306 0 -318.2L0 0Z" fill="#d81e5d"></path><path d="M-159.1 0C-155.1 -28 -151 -56.1 -137.8 -79.5C-124.5 -103 -102.1 -122 -77.6 -134.5C-53.1 -146.9 -26.6 -153 0 -159.1L0 0Z" fill="#fa3c3c"></path></g><g transform="translate(0, 0)"><path d="M636.4 0C620 111.8 603.7 223.6 551.1 318.2C498.6 412.8 409.9 490.2 312 540.4C214.1 590.6 107.1 613.5 0 636.4L0 0Z" fill="#112142"></path><path d="M477.3 0C465 83.8 452.8 167.7 413.4 238.6C373.9 309.6 307.4 367.7 234 405.3C160.6 442.9 80.3 460.1 0 477.3L0 0Z" fill="#712b6f"></path><path d="M318.2 0C310 55.9 301.8 111.8 275.6 159.1C249.3 206.4 204.9 245.1 156 270.2C107.1 295.3 53.5 306.7 0 318.2L0 0Z" fill="#d81e5d"></path><path d="M159.1 0C155 27.9 150.9 55.9 137.8 79.5C124.6 103.2 102.5 122.6 78 135.1C53.5 147.6 26.8 153.4 0 159.1L0 0Z" fill="#fa3c3c"></path></g></svg>