<svg id="visual" viewBox="0 0 280 120" width="280" height="120" xmlns="http://www.w3.org/2000/svg" xmlns:xlink="http://www.w3.org/1999/xlink" version="1.1"><rect x="0" y="0" width="280" height="120" fill="#001220"></rect><defs><linearGradient id="grad1_0" x1="57.1%" y1="0%" x2="100%" y2="100%"><stop offset="3.333333333333332%" stop-color="#001220" stop-opacity="1"></stop><stop offset="96.66666666666667%" stop-color="#001220" stop-opacity="1"></stop></linearGradient></defs><defs><linearGradient id="grad2_0" x1="0%" y1="0%" x2="42.9%" y2="100%"><stop offset="3.333333333333332%" stop-color="#001220" stop-opacity="1"></stop><stop offset="96.66666666666667%" stop-color="#001220" stop-opacity="1"></stop></linearGradient></defs><g transform="translate(280, 0)"><path d="M0 66C-8.6 63.3 -17.3 60.5 -23 55.4C-28.7 50.4 -31.4 43 -38.2 38.2C-44.9 33.4 -55.7 31.2 -61 25.3C-66.3 19.3 -66.1 9.7 -66 0L0 0Z" fill="#8efa3c"></path></g><g transform="translate(0, 120)"><path d="M0 -66C8.1 -64.4 16.2 -62.7 24.9 -60.1C33.6 -57.4 42.9 -53.7 46.7 -46.7C50.4 -39.7 48.5 -29.4 50.8 -21C53.1 -12.7 59.5 -6.4 66 0L0 0Z" fill="#8efa3c"></path></g></svg>