<svg width="275.67494506835936px" height="144.8px" xmlns="http://www.w3.org/2000/svg" viewBox="112.16252746582032 2.5999999999999943 275.67494506835936 144.8" style="background: none;" preserveAspectRatio="xMidYMid"><defs><filter id="editing-metal-beveled"><feGaussianBlur stdDeviation="4" in="SourceAlpha" result="blur"></feGaussianBlur><feSpecularLighting surfaceScale="5" specularConstant="0.8" specularExponent="7.5" lighting-color="#ffffff" in="blur" result="specular"><fePointLight x="-250" y="-50" z="300"></fePointLight></feSpecularLighting><feComposite operator="in" in="specular" in2="SourceAlpha" result="comp"></feComposite><feComposite in="SourceGraphic" in2="comp" operator="arithmetic" k1="0" k2="1" k3="1" k4="0"></feComposite></filter></defs><g filter="url(#editing-metal-beveled)"><g transform="translate(156.3892617225647, 112.00972938537598)"><path d="M3.06-4.75L3.06-31.19L3.06-31.19Q2.81-31.25 2.47-31.56L2.47-31.56L2.47-31.56Q2.13-31.88 1.84-32.25L1.84-32.25L1.84-32.25Q1.56-32.63 1.38-33L1.38-33L1.38-33Q1.19-33.38 1.19-33.63L1.19-33.63L1.19-33.63Q1.38-35.69 2.72-36.72L2.72-36.72L2.72-36.72Q4.06-37.75 5.81-38.13L5.81-38.13L5.81-38.13Q7.56-38.50 9.44-38.50L9.44-38.50L9.44-38.50Q11.31-38.50 12.63-38.50L12.63-38.50L12.63-38.50Q14.81-38.50 16.66-38.28L16.66-38.28L16.66-38.28Q18.50-38.06 19.88-37.28L19.88-37.28L19.88-37.28Q21.25-36.50 22.06-35.06L22.06-35.06L22.06-35.06Q22.88-33.63 22.88-31.13L22.88-31.13L22.88-31.13Q22.88-29.88 22.78-28.91L22.78-28.91L22.78-28.91Q22.69-27.94 22.44-27.03L22.44-27.03L22.44-27.03Q22.19-26.13 21.69-25.09L21.69-25.09L21.69-25.09Q21.19-24.06 20.38-22.75L20.38-22.75L20.38-22.75Q22.94-21.94 24.63-21.22L24.63-21.22L24.63-21.22Q26.31-20.50 27.25-19.47L27.25-19.47L27.25-19.47Q28.19-18.44 28.53-16.97L28.53-16.97L28.53-16.97Q28.88-15.50 28.88-13.19L28.88-13.19L28.88-13.19Q28.88-10.44 27.69-8L27.69-8L27.69-8Q26.50-5.56 24.53-3.75L24.53-3.75L24.53-3.75Q22.56-1.94 19.94-0.91L19.94-0.91L19.94-0.91Q17.31 0.13 14.38 0.13L14.38 0.13L14.38 0.13Q13.75 0.13 12.69-0.09L12.69-0.09L12.69-0.09Q11.63-0.31 10.38-0.66L10.38-0.66L10.38-0.66Q9.13-1 7.81-1.47L7.81-1.47L7.81-1.47Q6.50-1.94 5.44-2.50L5.44-2.50L5.44-2.50Q4.38-3.06 3.72-3.63L3.72-3.63L3.72-3.63Q3.06-4.19 3.06-4.75L3.06-4.75ZM7.19-16.75L7.19-16.75L7.19-16.75Q7.31-15.25 7.06-13.63L7.06-13.63L7.06-13.63Q6.81-12 6.63-10.50L6.63-10.50L6.63-10.50Q6.44-9 6.50-7.66L6.50-7.66L6.50-7.66Q6.56-6.31 7.25-5.25L7.25-5.25L7.25-5.25Q7.94-4.19 9.50-3.41L9.50-3.41L9.50-3.41Q11.06-2.63 13.81-2.31L13.81-2.31L13.81-2.31Q16.13-2.31 18.41-3.16L18.41-3.16L18.41-3.16Q20.69-4 22.47-5.47L22.47-5.47L22.47-5.47Q24.25-6.94 25.38-8.97L25.38-8.97L25.38-8.97Q26.50-11 26.50-13.44L26.50-13.44L26.50-13.44Q26.50-15.06 25.94-16.19L25.94-16.19L25.94-16.19Q25.38-17.31 24.44-18.03L24.44-18.03L24.44-18.03Q23.50-18.75 22.22-19.06L22.22-19.06L22.22-19.06Q20.94-19.38 19.50-19.38L19.50-19.38L19.50-19.38Q17.69-19.38 16.25-19.28L16.25-19.28L16.25-19.28Q14.81-19.19 13.41-18.91L13.41-18.91L13.41-18.91Q12-18.63 10.53-18.09L10.53-18.09L10.53-18.09Q9.06-17.56 7.19-16.75ZM5.94-23.25L5.94-23.25L5.94-23.25Q5.94-22.75 6-22.22L6-22.22L6-22.22Q6.06-21.69 6.22-21.28L6.22-21.28L6.22-21.28Q6.38-20.88 6.75-20.59L6.75-20.59L6.75-20.59Q7.13-20.31 7.75-20.31L7.75-20.31L7.75-20.31Q9.88-20.31 12.13-21.13L12.13-21.13L12.13-21.13Q14.38-21.94 16.22-23.38L16.22-23.38L16.22-23.38Q18.06-24.81 19.28-26.78L19.28-26.78L19.28-26.78Q20.50-28.75 20.50-31.19L20.50-31.19L20.50-31.19Q20.50-31.44 20.38-31.91L20.38-31.91L20.38-31.91Q20.25-32.38 19.81-32.88L19.81-32.88L19.81-32.88Q19.38-33.38 18.50-33.84L18.50-33.84L18.50-33.84Q17.63-34.31 16.16-34.63L16.16-34.63L16.16-34.63Q14.69-34.94 12.50-35L12.50-35L12.50-35Q10.31-35.06 7.19-34.75L7.19-34.75L7.19-34.75Q7.06-34.63 6.91-33.94L6.91-33.94L6.91-33.94Q6.75-33.25 6.59-32.22L6.59-32.22L6.59-32.22Q6.44-31.19 6.34-29.97L6.34-29.97L6.34-29.97Q6.25-28.75 6.16-27.53L6.16-27.53L6.16-27.53Q6.06-26.31 6-25.19L6-25.19L6-25.19Q5.94-24.06 5.94-23.25ZM46.81 25.81L44 25.63L44 25.63Q44 22.50 44.56 19.19L44.56 19.19L44.56 19.19Q45.13 15.88 45.72 12.56L45.72 12.56L45.72 12.56Q46.31 9.25 46.72 5.94L46.72 5.94L46.72 5.94Q47.13 2.63 46.81-0.56L46.81-0.56L31.25-26.94L31.25-26.94Q32.63-28.19 33.44-28.34L33.44-28.34L33.44-28.34Q34.25-28.50 34.38-28.38L34.38-28.38L34.38-28.38Q34.81-27.75 35.84-26.06L35.84-26.06L35.84-26.06Q36.88-24.38 38.22-22.13L38.22-22.13L38.22-22.13Q39.56-19.88 41.06-17.38L41.06-17.38L41.06-17.38Q42.56-14.88 43.91-12.63L43.91-12.63L43.91-12.63Q45.25-10.38 46.22-8.63L46.22-8.63L46.22-8.63Q47.19-6.88 47.56-6.19L47.56-6.19L50.44-29.38L53.56-27.81L46.81 25.81ZM63.50-22.69L63.50-22.69L63.50-22.69Q62.94-22.88 61.97-22.84L61.97-22.84L61.97-22.84Q61-22.81 59.91-22.72L59.91-22.72L59.91-22.72Q58.81-22.63 57.81-22.50L57.81-22.50L57.81-22.50Q56.81-22.38 56.13-22.38L56.13-22.38L56.13-22.38Q55.81-22.38 55.72-23.28L55.72-23.28L55.72-23.28Q55.63-24.19 55.44-25.75L55.44-25.75L64.25-26.38L64.25-26.38Q64.44-28.56 64.50-29.50L64.50-29.50L64.50-29.50Q64.56-30.44 64.53-31.09L64.53-31.09L64.53-31.09Q64.50-31.75 64.47-32.59L64.47-32.59L64.47-32.59Q64.44-33.44 64.44-35.25L64.44-35.25L64.44-35.25Q66.06-35.50 66.91-35.41L66.91-35.41L66.91-35.41Q67.75-35.31 68.06-34.94L68.06-34.94L68.06-34.94Q68.38-34.56 68.34-33.84L68.34-33.84L68.34-33.84Q68.31-33.13 68.16-32.06L68.16-32.06L68.16-32.06Q68-31 67.91-29.50L67.91-29.50L67.91-29.50Q67.81-28 68-26.13L68-26.13L75.50-26.38L75.50-23.31L75.50-23.31Q75-23.31 73.94-23.25L73.94-23.25L73.94-23.25Q72.88-23.19 71.66-23.13L71.66-23.13L71.66-23.13Q70.44-23.06 69.41-23L69.41-23L69.41-23Q68.38-22.94 67.88-22.75L67.88-22.75L67.88-22.75Q67.38-20.50 66.81-17.94L66.81-17.94L66.81-17.94Q66.25-15.38 66.06-12.88L66.06-12.88L66.06-12.88Q65.88-10.38 66.19-8.22L66.19-8.22L66.19-8.22Q66.50-6.06 67.75-4.66L67.75-4.66L67.75-4.66Q69-3.25 71.31-2.72L71.31-2.72L71.31-2.72Q73.63-2.19 77.44-3.06L77.44-3.06L77.44-3.06Q77.31-2.13 76.72-1.53L76.72-1.53L76.72-1.53Q76.13-0.94 75.34-0.59L75.34-0.59L75.34-0.59Q74.56-0.25 73.69-0.09L73.69-0.09L73.69-0.09Q72.81 0.06 72.13 0.06L72.13 0.06L72.13 0.06Q68.94 0.06 67.06-1.09L67.06-1.09L67.06-1.09Q65.19-2.25 64.25-4.13L64.25-4.13L64.25-4.13Q63.31-6 63.06-8.41L63.06-8.41L63.06-8.41Q62.81-10.81 62.91-13.31L62.91-13.31L62.91-13.31Q63-15.81 63.25-18.25L63.25-18.25L63.25-18.25Q63.50-20.69 63.50-22.69ZM80-14.69L80-14.69L80-14.69Q80-16.56 80.81-18.84L80.81-18.84L80.81-18.84Q81.63-21.13 83.03-23.09L83.03-23.09L83.03-23.09Q84.44-25.06 86.22-26.41L86.22-26.41L86.22-26.41Q88-27.75 89.94-27.75L89.94-27.75L89.94-27.75Q91-27.75 92.03-27.31L92.03-27.31L92.03-27.31Q93.06-26.88 94.03-26.16L94.03-26.16L94.03-26.16Q95-25.44 95.78-24.53L95.78-24.53L95.78-24.53Q96.56-23.63 97-22.63L97-22.63L97-22.63Q97.44-21.63 97.47-20.69L97.47-20.69L97.47-20.69Q97.50-19.75 96.94-19.06L96.94-19.06L83.75-16.63L83.75-16.63Q83.50-16.56 83.31-16.03L83.31-16.03L83.31-16.03Q83.13-15.50 83-14.69L83-14.69L83-14.69Q82.88-13.88 82.78-12.91L82.78-12.91L82.78-12.91Q82.69-11.94 82.63-11.03L82.63-11.03L82.63-11.03Q82.56-10.13 82.56-9.41L82.56-9.41L82.56-9.41Q82.56-8.69 82.56-8.31L82.56-8.31L82.56-8.31Q82.56-6.56 83.41-5.47L83.41-5.47L83.41-5.47Q84.25-4.38 85.56-3.81L85.56-3.81L85.56-3.81Q86.88-3.25 88.53-3.06L88.53-3.06L88.53-3.06Q90.19-2.88 91.81-2.88L91.81-2.88L91.81-2.88Q93.44-2.88 94.88-3L94.88-3L94.88-3Q96.31-3.13 97.25-3.13L97.25-3.13L97.25-3.13Q97.25-2.88 97.06-2.56L97.06-2.56L97.06-2.56Q96.88-2.25 96.63-1.97L96.63-1.97L96.63-1.97Q96.38-1.69 96.13-1.47L96.13-1.47L96.13-1.47Q95.88-1.25 95.81-1.19L95.81-1.19L95.81-1.19Q95.31-1.06 94.28-0.84L94.28-0.84L94.28-0.84Q93.25-0.63 92.09-0.44L92.09-0.44L92.09-0.44Q90.94-0.25 89.94-0.13L89.94-0.13L89.94-0.13Q88.94 0 88.56 0L88.56 0L88.56 0Q86.63 0.38 85.19-0.06L85.19-0.06L85.19-0.06Q83.75-0.50 82.75-1.56L82.75-1.56L82.75-1.56Q81.75-2.63 81.13-4.16L81.13-4.16L81.13-4.16Q80.50-5.69 80.19-7.44L80.19-7.44L80.19-7.44Q79.88-9.19 79.84-11.06L79.84-11.06L79.84-11.06Q79.81-12.94 80-14.69ZM89.06-25.38L89.06-25.38L89.06-25.38Q88.50-25.38 87.59-24.78L87.59-24.78L87.59-24.78Q86.69-24.19 85.91-23.28L85.91-23.28L85.91-23.28Q85.13-22.38 84.59-21.34L84.59-21.34L84.59-21.34Q84.06-20.31 84.25-19.56L84.25-19.56L84.25-19.56Q85.88-19.38 87.63-19.63L87.63-19.63L87.63-19.63Q89.38-19.88 90.81-20.41L90.81-20.41L90.81-20.41Q92.25-20.94 93.19-21.66L93.19-21.66L93.19-21.66Q94.13-22.38 94.09-23.13L94.09-23.13L94.09-23.13Q94.06-23.88 92.91-24.47L92.91-24.47L92.91-24.47Q91.75-25.06 89.06-25.38ZM100.63-10.69L100.63-10.69L100.63-10.69Q100.63-13 101.38-15.81L101.38-15.81L101.38-15.81Q102.13-18.63 103.56-21.03L103.56-21.03L103.56-21.03Q105-23.44 107.13-25.06L107.13-25.06L107.13-25.06Q109.25-26.69 112.06-26.69L112.06-26.69L112.06-26.69Q113.50-26.88 114.38-26.41L114.38-26.41L114.38-26.41Q115.25-25.94 115.72-24.94L115.72-24.94L115.72-24.94Q116.19-23.94 116.34-22.66L116.34-22.66L116.34-22.66Q116.50-21.38 116.53-20.03L116.53-20.03L116.53-20.03Q116.56-18.69 116.53-17.53L116.53-17.53L116.53-17.53Q116.50-16.38 116.63-15.63L116.63-15.63L115.06-15.63L115.06-15.63Q115-16 114.84-17.41L114.84-17.41L114.84-17.41Q114.69-18.81 114.31-20.31L114.31-20.31L114.31-20.31Q113.94-21.81 113.28-23L113.28-23L113.28-23Q112.63-24.19 111.44-24.19L111.44-24.19L111.44-24.19Q109.69-24.19 108.16-22.81L108.16-22.81L108.16-22.81Q106.63-21.44 105.50-19.50L105.50-19.50L105.50-19.50Q104.38-17.56 103.69-15.50L103.69-15.50L103.69-15.50Q103-13.44 103-12.06L103-12.06L103-12.06Q103.06-10.50 103.44-8.66L103.44-8.66L103.44-8.66Q103.81-6.81 104.66-5.31L104.66-5.31L104.66-5.31Q105.50-3.81 106.88-2.88L106.88-2.88L106.88-2.88Q108.25-1.94 110.25-2.31L110.25-2.31L110.25-2.31Q111.75-2.31 113.13-2.94L113.13-2.94L113.13-2.94Q114.50-3.56 115.81-4.25L115.81-4.25L115.81-4.25Q117.13-4.94 118.47-5.56L118.47-5.56L118.47-5.56Q119.81-6.19 121.31-6.19L121.31-6.19L121.31-6.19Q121.31-4.56 120.13-3.34L120.13-3.34L120.13-3.34Q118.94-2.13 117.22-1.38L117.22-1.38L117.22-1.38Q115.50-0.63 113.59-0.25L113.59-0.25L113.59-0.25Q111.69 0.13 110.38 0.13L110.38 0.13L110.38 0.13Q108.25 0.13 106.47-0.75L106.47-0.75L106.47-0.75Q104.69-1.63 103.38-3.09L103.38-3.09L103.38-3.09Q102.06-4.56 101.34-6.53L101.34-6.53L101.34-6.53Q100.63-8.50 100.63-10.69ZM124.38-11.44L124.38-11.44L124.38-11.44Q124.38-12.88 124.63-14.78L124.63-14.78L124.63-14.78Q124.88-16.69 125.44-18.63L125.44-18.63L125.44-18.63Q126-20.56 126.84-22.44L126.84-22.44L126.84-22.44Q127.69-24.31 128.88-25.78L128.88-25.78L128.88-25.78Q130.06-27.25 131.63-28.16L131.63-28.16L131.63-28.16Q133.19-29.06 135.13-29.06L135.13-29.06L135.13-29.06Q137.13-29.06 138.84-27.69L138.84-27.69L138.84-27.69Q140.56-26.31 141.78-24.13L141.78-24.13L141.78-24.13Q143-21.94 143.63-19.25L143.63-19.25L143.63-19.25Q144.25-16.56 144.13-14L144.13-14L144.13-14Q144.13-10.25 142.69-7.31L142.69-7.31L142.69-7.31Q141.25-4.38 139.03-2.56L139.03-2.56L139.03-2.56Q136.81-0.75 134.28-0.13L134.28-0.13L134.28-0.13Q131.75 0.50 129.53-0.47L129.53-0.47L129.53-0.47Q127.31-1.44 125.84-4.13L125.84-4.13L125.84-4.13Q124.38-6.81 124.38-11.44ZM126.69-11.19L126.69-11.19L126.69-11.19Q126.88-7.38 128-5.31L128-5.31L128-5.31Q129.13-3.25 130.72-2.59L130.72-2.59L130.72-2.59Q132.31-1.94 134.19-2.56L134.19-2.56L134.19-2.56Q136.06-3.19 137.69-4.78L137.69-4.78L137.69-4.78Q139.31-6.38 140.47-8.78L140.47-8.78L140.47-8.78Q141.63-11.19 141.75-14.19L141.75-14.19L141.75-14.19Q141.88-16.44 141.41-18.56L141.41-18.56L141.41-18.56Q140.94-20.69 140.09-22.34L140.09-22.34L140.09-22.34Q139.25-24 138.03-24.97L138.03-24.97L138.03-24.97Q136.81-25.94 135.25-25.94L135.25-25.94L135.25-25.94Q133.75-25.94 132.56-25.19L132.56-25.19L132.56-25.19Q131.38-24.44 130.41-23.16L130.41-23.16L130.41-23.16Q129.44-21.88 128.75-20.25L128.75-20.25L128.75-20.25Q128.06-18.63 127.59-17L127.59-17L127.59-17Q127.13-15.38 126.91-13.84L126.91-13.84L126.91-13.84Q126.69-12.31 126.69-11.19ZM146.25-9.06L146.25-9.06L146.25-9.06Q146.25-10.75 146.81-12.78L146.81-12.78L146.81-12.78Q147.38-14.81 148.44-16.53L148.44-16.53L148.44-16.53Q149.50-18.25 151-19.38L151-19.38L151-19.38Q152.50-20.50 154.50-20.50L154.50-20.50L154.50-20.50Q156-20.50 157.16-20.22L157.16-20.22L157.16-20.22Q158.31-19.94 159.34-19.28L159.34-19.28L159.34-19.28Q160.38-18.63 161.28-17.72L161.28-17.72L161.28-17.72Q162.19-16.81 163.19-15.63L163.19-15.63L162.81-47.69L162.81-47.69Q164.50-48.31 164.91-48.19L164.91-48.19L164.91-48.19Q165.31-48.06 165.31-47.13L165.31-47.13L165.31-47.13Q165.31-47 165.28-46.75L165.28-46.75L165.28-46.75Q165.25-46.50 165.25-46.44L165.25-46.44L165.25-46.44Q165.19-45.25 165.16-43.06L165.16-43.06L165.16-43.06Q165.13-40.88 165.16-38L165.16-38L165.16-38Q165.19-35.13 165.25-31.78L165.25-31.78L165.25-31.78Q165.31-28.44 165.38-25.03L165.38-25.03L165.38-25.03Q165.44-21.63 165.53-18.28L165.53-18.28L165.53-18.28Q165.63-14.94 165.66-12.06L165.66-12.06L165.66-12.06Q165.69-9.19 165.66-6.97L165.66-6.97L165.66-6.97Q165.63-4.75 165.56-3.63L165.56-3.63L165.56-3.63Q164.88-2.19 163.66-1.44L163.66-1.44L163.66-1.44Q162.44-0.69 161.03-0.34L161.03-0.34L161.03-0.34Q159.63 0 158.13 0.06L158.13 0.06L158.13 0.06Q156.63 0.13 155.31 0.13L155.31 0.13L155.31 0.13Q151.13 0.13 148.69-2.34L148.69-2.34L148.69-2.34Q146.25-4.81 146.25-9.06ZM148.75-10.75L148.75-10.75L148.75-10.75Q148.75-9.19 149-7.66L149-7.66L149-7.66Q149.25-6.13 149.88-4.94L149.88-4.94L149.88-4.94Q150.50-3.75 151.63-3.03L151.63-3.03L151.63-3.03Q152.75-2.31 154.50-2.31L154.50-2.31L154.50-2.31Q155.56-2.31 157.06-2.31L157.06-2.31L157.06-2.31Q158.56-2.31 159.94-2.66L159.94-2.66L159.94-2.66Q161.31-3 162.25-3.75L162.25-3.75L162.25-3.75Q163.19-4.50 163.19-5.88L163.19-5.88L163.19-5.88Q163.19-7.50 162.72-9.59L162.72-9.59L162.72-9.59Q162.25-11.69 161.28-13.59L161.28-13.59L161.28-13.59Q160.31-15.50 158.84-16.84L158.84-16.84L158.84-16.84Q157.38-18.19 155.38-18.19L155.38-18.19L155.38-18.19Q154.06-18.19 152.88-17.50L152.88-17.50L152.88-17.50Q151.69-16.81 150.78-15.75L150.78-15.75L150.78-15.75Q149.88-14.69 149.31-13.38L149.31-13.38L149.31-13.38Q148.75-12.06 148.75-10.75ZM168.56-14.69L168.56-14.69L168.56-14.69Q168.56-16.56 169.38-18.84L169.38-18.84L169.38-18.84Q170.19-21.13 171.59-23.09L171.59-23.09L171.59-23.09Q173-25.06 174.78-26.41L174.78-26.41L174.78-26.41Q176.56-27.75 178.50-27.75L178.50-27.75L178.50-27.75Q179.56-27.75 180.59-27.31L180.59-27.31L180.59-27.31Q181.63-26.88 182.59-26.16L182.59-26.16L182.59-26.16Q183.56-25.44 184.34-24.53L184.34-24.53L184.34-24.53Q185.13-23.63 185.56-22.63L185.56-22.63L185.56-22.63Q186-21.63 186.03-20.69L186.03-20.69L186.03-20.69Q186.06-19.75 185.50-19.06L185.50-19.06L172.31-16.63L172.31-16.63Q172.06-16.56 171.88-16.03L171.88-16.03L171.88-16.03Q171.69-15.50 171.56-14.69L171.56-14.69L171.56-14.69Q171.44-13.88 171.34-12.91L171.34-12.91L171.34-12.91Q171.25-11.94 171.19-11.03L171.19-11.03L171.19-11.03Q171.13-10.13 171.13-9.41L171.13-9.41L171.13-9.41Q171.13-8.69 171.13-8.31L171.13-8.31L171.13-8.31Q171.13-6.56 171.97-5.47L171.97-5.47L171.97-5.47Q172.81-4.38 174.13-3.81L174.13-3.81L174.13-3.81Q175.44-3.25 177.09-3.06L177.09-3.06L177.09-3.06Q178.75-2.88 180.38-2.88L180.38-2.88L180.38-2.88Q182-2.88 183.44-3L183.44-3L183.44-3Q184.88-3.13 185.81-3.13L185.81-3.13L185.81-3.13Q185.81-2.88 185.63-2.56L185.63-2.56L185.63-2.56Q185.44-2.25 185.19-1.97L185.19-1.97L185.19-1.97Q184.94-1.69 184.69-1.47L184.69-1.47L184.69-1.47Q184.44-1.25 184.38-1.19L184.38-1.19L184.38-1.19Q183.88-1.06 182.84-0.84L182.84-0.84L182.84-0.84Q181.81-0.63 180.66-0.44L180.66-0.44L180.66-0.44Q179.50-0.25 178.50-0.13L178.50-0.13L178.50-0.13Q177.50 0 177.13 0L177.13 0L177.13 0Q175.19 0.38 173.75-0.06L173.75-0.06L173.75-0.06Q172.31-0.50 171.31-1.56L171.31-1.56L171.31-1.56Q170.31-2.63 169.69-4.16L169.69-4.16L169.69-4.16Q169.06-5.69 168.75-7.44L168.75-7.44L168.75-7.44Q168.44-9.19 168.41-11.06L168.41-11.06L168.41-11.06Q168.38-12.94 168.56-14.69ZM177.63-25.38L177.63-25.38L177.63-25.38Q177.06-25.38 176.16-24.78L176.16-24.78L176.16-24.78Q175.25-24.19 174.47-23.28L174.47-23.28L174.47-23.28Q173.69-22.38 173.16-21.34L173.16-21.34L173.16-21.34Q172.63-20.31 172.81-19.56L172.81-19.56L172.81-19.56Q174.44-19.38 176.19-19.63L176.19-19.63L176.19-19.63Q177.94-19.88 179.38-20.41L179.38-20.41L179.38-20.41Q180.81-20.94 181.75-21.66L181.75-21.66L181.75-21.66Q182.69-22.38 182.66-23.13L182.66-23.13L182.66-23.13Q182.63-23.88 181.47-24.47L181.47-24.47L181.47-24.47Q180.31-25.06 177.63-25.38Z" fill="#ffffff"></path></g></g><style>text {
  font-size: 64px;
  font-family: Arial Black;
  dominant-baseline: central;
  text-anchor: middle;
}</style></svg>