<svg id="visual" viewBox="0 0 1200 1200" width="1200" height="1200" xmlns="http://www.w3.org/2000/svg" xmlns:xlink="http://www.w3.org/1999/xlink" version="1.1"><path d="M0 157L100 165C200 173 400 189 600 189C800 189 1000 173 1100 165L1200 157L1200 0L1100 0C1000 0 800 0 600 0C400 0 200 0 100 0L0 0Z" fill="#2b2d32"></path><path d="M0 217L100 219C200 221 400 225 600 225C800 225 1000 221 1100 219L1200 217L1200 155L1100 163C1000 171 800 187 600 187C400 187 200 171 100 163L0 155Z" fill="#4b3d5f"></path><path d="M0 241L100 245C200 249 400 257 600 265C800 273 1000 281 1100 285L1200 289L1200 215L1100 217C1000 219 800 223 600 223C400 223 200 219 100 217L0 215Z" fill="#8c4175"></path><path d="M0 349L100 351C200 353 400 357 600 367C800 377 1000 393 1100 401L1200 409L1200 287L1100 283C1000 279 800 271 600 263C400 255 200 247 100 243L0 239Z" fill="#cf3d66"></path><path d="M0 493L100 479C200 465 400 437 600 443C800 449 1000 489 1100 509L1200 529L1200 407L1100 399C1000 391 800 375 600 365C400 355 200 351 100 349L0 347Z" fill="#fa5636"></path><path d="M0 649L100 635C200 621 400 593 600 617C800 641 1000 717 1100 755L1200 793L1200 527L1100 507C1000 487 800 447 600 441C400 435 200 463 100 477L0 491Z" fill="#ff6b0e"></path><path d="M0 757L100 731C200 705 400 653 600 665C800 677 1000 753 1100 791L1200 829L1200 791L1100 753C1000 715 800 639 600 615C400 591 200 619 100 633L0 647Z" fill="#ff6b0e"></path><path d="M0 781L100 757C200 733 400 685 600 699C800 713 1000 789 1100 827L1200 865L1200 827L1100 789C1000 751 800 675 600 663C400 651 200 703 100 729L0 755Z" fill="#fa5636"></path><path d="M0 817L100 801C200 785 400 753 600 769C800 785 1000 849 1100 881L1200 913L1200 863L1100 825C1000 787 800 711 600 697C400 683 200 731 100 755L0 779Z" fill="#cf3d66"></path><path d="M0 877L100 865C200 853 400 829 600 849C800 869 1000 933 1100 965L1200 997L1200 911L1100 879C1000 847 800 783 600 767C400 751 200 783 100 799L0 815Z" fill="#8c4175"></path><path d="M0 937L100 929C200 921 400 905 600 927C800 949 1000 1009 1100 1039L1200 1069L1200 995L1100 963C1000 931 800 867 600 847C400 827 200 851 100 863L0 875Z" fill="#4b3d5f"></path><path d="M0 1201L100 1201C200 1201 400 1201 600 1201C800 1201 1000 1201 1100 1201L1200 1201L1200 1067L1100 1037C1000 1007 800 947 600 925C400 903 200 919 100 927L0 935Z" fill="#2b2d32"></path></svg>