<svg id="visual" viewBox="0 0 450 900" width="450" height="900" xmlns="http://www.w3.org/2000/svg" xmlns:xlink="http://www.w3.org/1999/xlink" version="1.1"><rect x="0" y="0" width="450" height="900" fill="#00000b"></rect><defs><linearGradient id="grad1_0" x1="0%" y1="0%" x2="100%" y2="100%"><stop offset="30%" stop-color="#ff0000" stop-opacity="1"></stop><stop offset="70%" stop-color="#ff0000" stop-opacity="1"></stop></linearGradient></defs><defs><linearGradient id="grad1_1" x1="0%" y1="0%" x2="100%" y2="100%"><stop offset="30%" stop-color="#ff0000" stop-opacity="1"></stop><stop offset="70%" stop-color="#e50034" stop-opacity="1"></stop></linearGradient></defs><defs><linearGradient id="grad1_2" x1="0%" y1="0%" x2="100%" y2="100%"><stop offset="30%" stop-color="#c0004b" stop-opacity="1"></stop><stop offset="70%" stop-color="#e50034" stop-opacity="1"></stop></linearGradient></defs><defs><linearGradient id="grad1_3" x1="0%" y1="0%" x2="100%" y2="100%"><stop offset="30%" stop-color="#c0004b" stop-opacity="1"></stop><stop offset="70%" stop-color="#940055" stop-opacity="1"></stop></linearGradient></defs><defs><linearGradient id="grad1_4" x1="0%" y1="0%" x2="100%" y2="100%"><stop offset="30%" stop-color="#660f53" stop-opacity="1"></stop><stop offset="70%" stop-color="#940055" stop-opacity="1"></stop></linearGradient></defs><defs><linearGradient id="grad1_5" x1="0%" y1="0%" x2="100%" y2="100%"><stop offset="30%" stop-color="#660f53" stop-opacity="1"></stop><stop offset="70%" stop-color="#3b1744" stop-opacity="1"></stop></linearGradient></defs><defs><linearGradient id="grad1_6" x1="0%" y1="0%" x2="100%" y2="100%"><stop offset="30%" stop-color="#1b132b" stop-opacity="1"></stop><stop offset="70%" stop-color="#3b1744" stop-opacity="1"></stop></linearGradient></defs><defs><linearGradient id="grad1_7" x1="0%" y1="0%" x2="100%" y2="100%"><stop offset="30%" stop-color="#1b132b" stop-opacity="1"></stop><stop offset="70%" stop-color="#00000b" stop-opacity="1"></stop></linearGradient></defs><defs><linearGradient id="grad2_0" x1="0%" y1="0%" x2="100%" y2="100%"><stop offset="30%" stop-color="#ff0000" stop-opacity="1"></stop><stop offset="70%" stop-color="#ff0000" stop-opacity="1"></stop></linearGradient></defs><defs><linearGradient id="grad2_1" x1="0%" y1="0%" x2="100%" y2="100%"><stop offset="30%" stop-color="#e50034" stop-opacity="1"></stop><stop offset="70%" stop-color="#ff0000" stop-opacity="1"></stop></linearGradient></defs><defs><linearGradient id="grad2_2" x1="0%" y1="0%" x2="100%" y2="100%"><stop offset="30%" stop-color="#e50034" stop-opacity="1"></stop><stop offset="70%" stop-color="#c0004b" stop-opacity="1"></stop></linearGradient></defs><defs><linearGradient id="grad2_3" x1="0%" y1="0%" x2="100%" y2="100%"><stop offset="30%" stop-color="#940055" stop-opacity="1"></stop><stop offset="70%" stop-color="#c0004b" stop-opacity="1"></stop></linearGradient></defs><defs><linearGradient id="grad2_4" x1="0%" y1="0%" x2="100%" y2="100%"><stop offset="30%" stop-color="#940055" stop-opacity="1"></stop><stop offset="70%" stop-color="#660f53" stop-opacity="1"></stop></linearGradient></defs><defs><linearGradient id="grad2_5" x1="0%" y1="0%" x2="100%" y2="100%"><stop offset="30%" stop-color="#3b1744" stop-opacity="1"></stop><stop offset="70%" stop-color="#660f53" stop-opacity="1"></stop></linearGradient></defs><defs><linearGradient id="grad2_6" x1="0%" y1="0%" x2="100%" y2="100%"><stop offset="30%" stop-color="#3b1744" stop-opacity="1"></stop><stop offset="70%" stop-color="#1b132b" stop-opacity="1"></stop></linearGradient></defs><defs><linearGradient id="grad2_7" x1="0%" y1="0%" x2="100%" y2="100%"><stop offset="30%" stop-color="#00000b" stop-opacity="1"></stop><stop offset="70%" stop-color="#1b132b" stop-opacity="1"></stop></linearGradient></defs><g transform="translate(450, 0)"><path d="M0 450C-49.8 421.4 -99.6 392.8 -155.4 375.1C-211.2 357.4 -273 350.6 -318.2 318.2C-363.4 285.7 -391.9 227.6 -411.1 170.3C-430.3 113 -440.2 56.5 -450 0L0 0Z" fill="#100b1d"></path><path d="M0 393.8C-43.6 368.7 -87.1 343.7 -135.9 328.2C-184.8 312.7 -238.9 306.8 -278.4 278.4C-318 250 -342.9 199.2 -359.7 149C-376.5 98.9 -385.1 49.4 -393.7 0L0 0Z" fill="#291638"></path><path d="M0 337.5C-37.3 316 -74.7 294.6 -116.5 281.3C-158.4 268.1 -204.8 263 -238.6 238.6C-272.5 214.3 -293.9 170.7 -308.3 127.7C-322.7 84.7 -330.1 42.4 -337.5 0L0 0Z" fill="#50154d"></path><path d="M0 281.3C-31.1 263.4 -62.2 245.5 -97.1 234.4C-132 223.4 -170.6 219.2 -198.9 198.9C-227.1 178.6 -245 142.3 -257 106.4C-268.9 70.6 -275.1 35.3 -281.2 0L0 0Z" fill="#7d0056"></path><path d="M0 225C-24.9 210.7 -49.8 196.4 -77.7 187.5C-105.6 178.7 -136.5 175.3 -159.1 159.1C-181.7 142.9 -196 113.8 -205.6 85.1C-215.2 56.5 -220.1 28.2 -225 0L0 0Z" fill="#ab0052"></path><path d="M0 168.8C-18.7 158 -37.3 147.3 -58.3 140.7C-79.2 134 -102.4 131.5 -119.3 119.3C-136.3 107.2 -147 85.4 -154.2 63.9C-161.4 42.4 -165.1 21.2 -168.7 0L0 0Z" fill="#d40041"></path><path d="M0 112.5C-12.4 105.3 -24.9 98.2 -38.8 93.8C-52.8 89.4 -68.3 87.7 -79.5 79.5C-90.8 71.4 -98 56.9 -102.8 42.6C-107.6 28.2 -110 14.1 -112.5 0L0 0Z" fill="#f40023"></path><path d="M0 56.3C-6.2 52.7 -12.4 49.1 -19.4 46.9C-26.4 44.7 -34.1 43.8 -39.8 39.8C-45.4 35.7 -49 28.5 -51.4 21.3C-53.8 14.1 -55 7.1 -56.2 0L0 0Z" fill="#ff0000"></path></g><g transform="translate(0, 900)"><path d="M0 -450C65.8 -452 131.5 -453.9 172.2 -415.7C212.9 -377.6 228.4 -299.2 247.5 -247.5C266.5 -195.8 289 -170.7 323.4 -133.9C357.7 -97.1 403.8 -48.6 450 0L0 0Z" fill="#100b1d"></path><path d="M0 -393.7C57.5 -395.5 115.1 -397.2 150.7 -363.8C186.3 -330.4 199.9 -261.8 216.6 -216.6C233.2 -171.3 252.9 -149.4 282.9 -117.2C313 -85 353.4 -42.5 393.8 0L0 0Z" fill="#291638"></path><path d="M0 -337.5C49.3 -339 98.7 -340.5 129.2 -311.8C159.7 -283.2 171.3 -224.4 185.6 -185.6C199.9 -146.8 216.8 -128.1 242.5 -100.5C268.3 -72.9 302.9 -36.4 337.5 0L0 0Z" fill="#50154d"></path><path d="M0 -281.2C41.1 -282.5 82.2 -283.7 107.6 -259.8C133 -236 142.8 -187 154.7 -154.7C166.6 -122.4 180.6 -106.7 202.1 -83.7C223.6 -60.7 252.4 -30.4 281.3 0L0 0Z" fill="#7d0056"></path><path d="M0 -225C32.9 -226 65.8 -227 86.1 -207.9C106.4 -188.8 114.2 -149.6 123.7 -123.7C133.3 -97.9 144.5 -85.4 161.7 -67C178.8 -48.6 201.9 -24.3 225 0L0 0Z" fill="#ab0052"></path><path d="M0 -168.7C24.7 -169.5 49.3 -170.2 64.6 -155.9C79.8 -141.6 85.7 -112.2 92.8 -92.8C99.9 -73.4 108.4 -64 121.3 -50.2C134.1 -36.4 151.4 -18.2 168.8 0L0 0Z" fill="#d40041"></path><path d="M0 -112.5C16.4 -113 32.9 -113.5 43.1 -103.9C53.2 -94.4 57.1 -74.8 61.9 -61.9C66.6 -48.9 72.3 -42.7 80.8 -33.5C89.4 -24.3 101 -12.1 112.5 0L0 0Z" fill="#f40023"></path><path d="M0 -56.2C8.2 -56.5 16.4 -56.7 21.5 -52C26.6 -47.2 28.6 -37.4 30.9 -30.9C33.3 -24.5 36.1 -21.3 40.4 -16.7C44.7 -12.1 50.5 -6.1 56.3 0L0 0Z" fill="#ff0000"></path></g></svg>