<svg id="visual" viewBox="0 0 450 900" width="450" height="900" xmlns="http://www.w3.org/2000/svg" xmlns:xlink="http://www.w3.org/1999/xlink" version="1.1"><rect x="0" y="0" width="450" height="900" fill="#00000b"></rect><defs><linearGradient id="grad1_0" x1="0%" y1="100%" x2="100%" y2="0%"><stop offset="30%" stop-color="#3bf03a" stop-opacity="1"></stop><stop offset="70%" stop-color="#3bf03a" stop-opacity="1"></stop></linearGradient></defs><defs><linearGradient id="grad1_1" x1="0%" y1="100%" x2="100%" y2="0%"><stop offset="30%" stop-color="#3bf03a" stop-opacity="1"></stop><stop offset="70%" stop-color="#00d072" stop-opacity="1"></stop></linearGradient></defs><defs><linearGradient id="grad1_2" x1="0%" y1="100%" x2="100%" y2="0%"><stop offset="30%" stop-color="#00ad91" stop-opacity="1"></stop><stop offset="70%" stop-color="#00d072" stop-opacity="1"></stop></linearGradient></defs><defs><linearGradient id="grad1_3" x1="0%" y1="100%" x2="100%" y2="0%"><stop offset="30%" stop-color="#00ad91" stop-opacity="1"></stop><stop offset="70%" stop-color="#008998" stop-opacity="1"></stop></linearGradient></defs><defs><linearGradient id="grad1_4" x1="0%" y1="100%" x2="100%" y2="0%"><stop offset="30%" stop-color="#006489" stop-opacity="1"></stop><stop offset="70%" stop-color="#008998" stop-opacity="1"></stop></linearGradient></defs><defs><linearGradient id="grad1_5" x1="0%" y1="100%" x2="100%" y2="0%"><stop offset="30%" stop-color="#006489" stop-opacity="1"></stop><stop offset="70%" stop-color="#004166" stop-opacity="1"></stop></linearGradient></defs><defs><linearGradient id="grad1_6" x1="0%" y1="100%" x2="100%" y2="0%"><stop offset="30%" stop-color="#032139" stop-opacity="1"></stop><stop offset="70%" stop-color="#004166" stop-opacity="1"></stop></linearGradient></defs><defs><linearGradient id="grad1_7" x1="0%" y1="100%" x2="100%" y2="0%"><stop offset="30%" stop-color="#032139" stop-opacity="1"></stop><stop offset="70%" stop-color="#00000b" stop-opacity="1"></stop></linearGradient></defs><defs><linearGradient id="grad2_0" x1="0%" y1="100%" x2="100%" y2="0%"><stop offset="30%" stop-color="#3bf03a" stop-opacity="1"></stop><stop offset="70%" stop-color="#3bf03a" stop-opacity="1"></stop></linearGradient></defs><defs><linearGradient id="grad2_1" x1="0%" y1="100%" x2="100%" y2="0%"><stop offset="30%" stop-color="#00d072" stop-opacity="1"></stop><stop offset="70%" stop-color="#3bf03a" stop-opacity="1"></stop></linearGradient></defs><defs><linearGradient id="grad2_2" x1="0%" y1="100%" x2="100%" y2="0%"><stop offset="30%" stop-color="#00d072" stop-opacity="1"></stop><stop offset="70%" stop-color="#00ad91" stop-opacity="1"></stop></linearGradient></defs><defs><linearGradient id="grad2_3" x1="0%" y1="100%" x2="100%" y2="0%"><stop offset="30%" stop-color="#008998" stop-opacity="1"></stop><stop offset="70%" stop-color="#00ad91" stop-opacity="1"></stop></linearGradient></defs><defs><linearGradient id="grad2_4" x1="0%" y1="100%" x2="100%" y2="0%"><stop offset="30%" stop-color="#008998" stop-opacity="1"></stop><stop offset="70%" stop-color="#006489" stop-opacity="1"></stop></linearGradient></defs><defs><linearGradient id="grad2_5" x1="0%" y1="100%" x2="100%" y2="0%"><stop offset="30%" stop-color="#004166" stop-opacity="1"></stop><stop offset="70%" stop-color="#006489" stop-opacity="1"></stop></linearGradient></defs><defs><linearGradient id="grad2_6" x1="0%" y1="100%" x2="100%" y2="0%"><stop offset="30%" stop-color="#004166" stop-opacity="1"></stop><stop offset="70%" stop-color="#032139" stop-opacity="1"></stop></linearGradient></defs><defs><linearGradient id="grad2_7" x1="0%" y1="100%" x2="100%" y2="0%"><stop offset="30%" stop-color="#00000b" stop-opacity="1"></stop><stop offset="70%" stop-color="#032139" stop-opacity="1"></stop></linearGradient></defs><g transform="translate(450, 900)"><path d="M-450 0C-421.4 -49.8 -392.8 -99.6 -375.1 -155.4C-357.4 -211.2 -350.6 -273 -318.2 -318.2C-285.7 -363.4 -227.6 -391.9 -170.3 -411.1C-113 -430.3 -56.5 -440.2 0 -450L0 0Z" fill="#0c1423"></path><path d="M-393.7 0C-368.7 -43.6 -343.7 -87.1 -328.2 -135.9C-312.7 -184.8 -306.8 -238.9 -278.4 -278.4C-250 -318 -199.2 -342.9 -149 -359.7C-98.9 -376.5 -49.4 -385.1 0 -393.7L0 0Z" fill="#003150"></path><path d="M-337.5 0C-316 -37.3 -294.6 -74.7 -281.3 -116.5C-268.1 -158.4 -263 -204.8 -238.6 -238.6C-214.3 -272.5 -170.7 -293.9 -127.7 -308.3C-84.7 -322.7 -42.4 -330.1 0 -337.5L0 0Z" fill="#005279"></path><path d="M-281.2 0C-263.4 -31.1 -245.5 -62.2 -234.4 -97.1C-223.4 -132 -219.2 -170.6 -198.9 -198.9C-178.6 -227.1 -142.3 -245 -106.4 -257C-70.6 -268.9 -35.3 -275.1 0 -281.2L0 0Z" fill="#007793"></path><path d="M-225 0C-210.7 -24.9 -196.4 -49.8 -187.5 -77.7C-178.7 -105.6 -175.3 -136.5 -159.1 -159.1C-142.9 -181.7 -113.8 -196 -85.1 -205.6C-56.5 -215.2 -28.2 -220.1 0 -225L0 0Z" fill="#009b97"></path><path d="M-168.7 0C-158 -18.7 -147.3 -37.3 -140.7 -58.3C-134 -79.2 -131.5 -102.4 -119.3 -119.3C-107.2 -136.3 -85.4 -147 -63.9 -154.2C-42.4 -161.4 -21.2 -165.1 0 -168.7L0 0Z" fill="#00bf84"></path><path d="M-112.5 0C-105.3 -12.4 -98.2 -24.9 -93.8 -38.8C-89.4 -52.8 -87.7 -68.3 -79.5 -79.5C-71.4 -90.8 -56.9 -98 -42.6 -102.8C-28.2 -107.6 -14.1 -110 0 -112.5L0 0Z" fill="#00e15b"></path><path d="M-56.2 0C-52.7 -6.2 -49.1 -12.4 -46.9 -19.4C-44.7 -26.4 -43.8 -34.1 -39.8 -39.8C-35.7 -45.4 -28.5 -49 -21.3 -51.4C-14.1 -53.8 -7.1 -55 0 -56.2L0 0Z" fill="#3bf03a"></path></g><g transform="translate(0, 0)"><path d="M450 0C452 65.8 453.9 131.5 415.7 172.2C377.6 212.9 299.2 228.4 247.5 247.5C195.8 266.5 170.7 289 133.9 323.4C97.1 357.7 48.6 403.8 0 450L0 0Z" fill="#0c1423"></path><path d="M393.8 0C395.5 57.5 397.2 115.1 363.8 150.7C330.4 186.3 261.8 199.9 216.6 216.6C171.3 233.2 149.4 252.9 117.2 282.9C85 313 42.5 353.4 0 393.8L0 0Z" fill="#003150"></path><path d="M337.5 0C339 49.3 340.5 98.7 311.8 129.2C283.2 159.7 224.4 171.3 185.6 185.6C146.8 199.9 128.1 216.8 100.5 242.5C72.9 268.3 36.4 302.9 0 337.5L0 0Z" fill="#005279"></path><path d="M281.3 0C282.5 41.1 283.7 82.2 259.8 107.6C236 133 187 142.8 154.7 154.7C122.4 166.6 106.7 180.6 83.7 202.1C60.7 223.6 30.4 252.4 0 281.3L0 0Z" fill="#007793"></path><path d="M225 0C226 32.9 227 65.8 207.9 86.1C188.8 106.4 149.6 114.2 123.7 123.7C97.9 133.3 85.4 144.5 67 161.7C48.6 178.8 24.3 201.9 0 225L0 0Z" fill="#009b97"></path><path d="M168.8 0C169.5 24.7 170.2 49.3 155.9 64.6C141.6 79.8 112.2 85.7 92.8 92.8C73.4 99.9 64 108.4 50.2 121.3C36.4 134.1 18.2 151.4 0 168.8L0 0Z" fill="#00bf84"></path><path d="M112.5 0C113 16.4 113.5 32.9 103.9 43.1C94.4 53.2 74.8 57.1 61.9 61.9C48.9 66.6 42.7 72.3 33.5 80.8C24.3 89.4 12.1 101 0 112.5L0 0Z" fill="#00e15b"></path><path d="M56.3 0C56.5 8.2 56.7 16.4 52 21.5C47.2 26.6 37.4 28.6 30.9 30.9C24.5 33.3 21.3 36.1 16.7 40.4C12.1 44.7 6.1 50.5 0 56.3L0 0Z" fill="#3bf03a"></path></g></svg>