<svg id="visual" viewBox="0 0 1500 750" width="1500" height="750" xmlns="http://www.w3.org/2000/svg" xmlns:xlink="http://www.w3.org/1999/xlink" version="1.1"><rect x="0" y="0" width="1500" height="750" fill="#001220"></rect><defs><linearGradient id="grad1_0" x1="50%" y1="100%" x2="100%" y2="0%"><stop offset="10%" stop-color="#8efa3c" stop-opacity="1"></stop><stop offset="90%" stop-color="#8efa3c" stop-opacity="1"></stop></linearGradient></defs><defs><linearGradient id="grad1_1" x1="50%" y1="100%" x2="100%" y2="0%"><stop offset="10%" stop-color="#8efa3c" stop-opacity="1"></stop><stop offset="90%" stop-color="#00ae84" stop-opacity="1"></stop></linearGradient></defs><defs><linearGradient id="grad1_2" x1="50%" y1="100%" x2="100%" y2="0%"><stop offset="10%" stop-color="#005b74" stop-opacity="1"></stop><stop offset="90%" stop-color="#00ae84" stop-opacity="1"></stop></linearGradient></defs><defs><linearGradient id="grad1_3" x1="50%" y1="100%" x2="100%" y2="0%"><stop offset="10%" stop-color="#005b74" stop-opacity="1"></stop><stop offset="90%" stop-color="#001220" stop-opacity="1"></stop></linearGradient></defs><defs><linearGradient id="grad2_0" x1="0%" y1="100%" x2="50%" y2="0%"><stop offset="10%" stop-color="#8efa3c" stop-opacity="1"></stop><stop offset="90%" stop-color="#8efa3c" stop-opacity="1"></stop></linearGradient></defs><defs><linearGradient id="grad2_1" x1="0%" y1="100%" x2="50%" y2="0%"><stop offset="10%" stop-color="#00ae84" stop-opacity="1"></stop><stop offset="90%" stop-color="#8efa3c" stop-opacity="1"></stop></linearGradient></defs><defs><linearGradient id="grad2_2" x1="0%" y1="100%" x2="50%" y2="0%"><stop offset="10%" stop-color="#00ae84" stop-opacity="1"></stop><stop offset="90%" stop-color="#005b74" stop-opacity="1"></stop></linearGradient></defs><defs><linearGradient id="grad2_3" x1="0%" y1="100%" x2="50%" y2="0%"><stop offset="10%" stop-color="#001220" stop-opacity="1"></stop><stop offset="90%" stop-color="#005b74" stop-opacity="1"></stop></linearGradient></defs><g transform="translate(1500, 750)"><path d="M-750 0C-731.1 -132.5 -712.3 -265 -649.5 -375C-586.8 -485 -480.1 -572.6 -364.5 -631.3C-248.9 -690.1 -124.5 -720 0 -750L0 0Z" fill="#00344e"></path><path d="M-562.5 0C-548.4 -99.4 -534.2 -198.7 -487.1 -281.3C-440.1 -363.8 -360.1 -429.4 -273.4 -473.5C-186.7 -517.6 -93.3 -540 0 -562.5L0 0Z" fill="#008587"></path><path d="M-375 0C-365.6 -66.2 -356.1 -132.5 -324.8 -187.5C-293.4 -242.5 -240 -286.3 -182.3 -315.7C-124.5 -345 -62.2 -360 0 -375L0 0Z" fill="#00d66b"></path><path d="M-187.5 0C-182.8 -33.1 -178.1 -66.2 -162.4 -93.8C-146.7 -121.3 -120 -143.1 -91.1 -157.8C-62.2 -172.5 -31.1 -180 0 -187.5L0 0Z" fill="#8efa3c"></path></g><g transform="translate(0, 0)"><path d="M750 0C730.4 131.2 710.8 262.4 649.5 375C588.2 487.6 485.2 581.5 370 640.9C254.8 700.2 127.4 725.1 0 750L0 0Z" fill="#00344e"></path><path d="M562.5 0C547.8 98.4 533.1 196.8 487.1 281.2C441.2 365.7 363.9 436.1 277.5 480.6C191.1 525.2 95.5 543.8 0 562.5L0 0Z" fill="#008587"></path><path d="M375 0C365.2 65.6 355.4 131.2 324.8 187.5C294.1 243.8 242.6 290.7 185 320.4C127.4 350.1 63.7 362.6 0 375L0 0Z" fill="#00d66b"></path><path d="M187.5 0C182.6 32.8 177.7 65.6 162.4 93.7C147.1 121.9 121.3 145.4 92.5 160.2C63.7 175.1 31.8 181.3 0 187.5L0 0Z" fill="#8efa3c"></path></g></svg>